<svg width="1600" height="1190" viewBox="0 0 1600 1190" fill="none" xmlns="http://www.w3.org/2000/svg">
<g opacity="0.08">
<path d="M1430.99 270.863L1297.01 5.4259L1522 50.9294L1430.99 270.863Z" stroke="white" stroke-width="1.5"/>
<path d="M1522 50.9296L1297.01 5.4261L1623.12 -133.612L1522 50.9296Z" stroke="white" stroke-width="1.5"/>
<path d="M989.862 412.43L719.369 395.998L1060.65 268.336L989.862 412.43Z" stroke="white" stroke-width="1.5"/>
<path d="M644.793 570.428L720.632 395.998L525.978 522.396L644.793 570.428Z" stroke="white" stroke-width="1.5"/>
<path d="M1304.59 -386.41L1058.11 268.335L1297.01 5.4256L1304.59 -386.41Z" stroke="white" stroke-width="1.5"/>
<path d="M965.846 746.122L989.861 408.638L1184.52 632.363L965.846 746.122Z" stroke="white" stroke-width="1.5"/>
<path d="M1724.1 850.008L1700.08 1187.49L1505.43 963.767L1724.1 850.008Z" stroke="white" stroke-width="1.5"/>
<path d="M905.175 -181.643L740.856 71.1542L1164.29 -14.7969L905.175 -181.643Z" stroke="white" stroke-width="1.5"/>
<path d="M1423.41 409.902L1058.11 269.599L1430.99 270.863L1423.41 409.902Z" stroke="white" stroke-width="1.5"/>
<path d="M1640.81 283.503L1423.41 409.902L1638.28 586.86L1640.81 283.503Z" stroke="white" stroke-width="1.5"/>
<path d="M1443.63 -323.21L1297.01 5.42654L1623.12 -133.612L1443.63 -323.21Z" stroke="white" stroke-width="1.5"/>
<path d="M1640.81 283.503L1430.99 270.863L1522 50.9294L1640.81 283.503Z" stroke="white" stroke-width="1.5"/>
<path d="M1800.08 53.4574L1522 50.9294L1640.81 283.503L1800.08 53.4574Z" stroke="white" stroke-width="1.5"/>
<path d="M481.014 153.762L496.907 286.031L610.666 109.073L481.014 153.762Z" stroke="white" stroke-width="1.5"/>
<path d="M582.813 871.984L677.072 756.811L752.852 893.416L582.813 871.984Z" stroke="white" stroke-width="1.5"/>
<path d="M1623.12 -133.612L1800.08 53.4576L1522 50.9296L1623.12 -133.612Z" stroke="white" stroke-width="1.5"/>
<path d="M1959.34 -333.322L1443.63 -323.21L1800.07 53.4574L1959.34 -333.322Z" stroke="white" stroke-width="1.5"/>
</g>
</svg>
