<svg width="1448" height="580" viewBox="0 0 1448 580" fill="none" xmlns="http://www.w3.org/2000/svg">
<mask id="mask0" mask-type="alpha" maskUnits="userSpaceOnUse" x="0" y="0" width="1448" height="580">
<rect width="1448" height="580" rx="12" fill="#5749AB"/>
</mask>
<g mask="url(#mask0)">
<g opacity="0.08">
<path d="M-109.546 208.181L18.0327 -44.5696L-196.203 -1.24094L-109.546 208.181Z" stroke="white" stroke-width="1.5"/>
<path d="M310.499 342.982L568.064 327.336L243.099 205.775L310.499 342.982Z" stroke="white" stroke-width="1.5"/>
<path d="M639.075 493.428L566.86 327.335L752.211 447.692L639.075 493.428Z" stroke="white" stroke-width="1.5"/>
<path d="M1415.15 98.615L1302.41 240.358L1512.59 172.074L1415.15 98.615Z" stroke="white" stroke-width="1.5"/>
<path d="M10.8119 -417.678L245.509 205.773L18.0334 -44.5699L10.8119 -417.678Z" stroke="white" stroke-width="1.5"/>
<path d="M333.368 660.725L310.5 339.371L125.15 552.403L333.368 660.725Z" stroke="white" stroke-width="1.5"/>
<path d="M391.138 -222.698L547.603 18.0172L144.406 -63.8258L391.138 -222.698Z" stroke="white" stroke-width="1.5"/>
<path d="M-102.324 340.574L245.509 206.978L-109.545 208.181L-102.324 340.574Z" stroke="white" stroke-width="1.5"/>
<path d="M795.026 96.6762L779.892 222.624L671.57 54.1237L795.026 96.6762Z" stroke="white" stroke-width="1.5"/>
</g>
</g>
</svg>
