<svg width="156" height="43" viewBox="0 0 156 43" fill="none" xmlns="http://www.w3.org/2000/svg">
<path d="M24.7037 19.9574C24.6623 15.3646 28.4642 13.1303 28.638 13.0262C26.4849 9.88699 23.1476 9.45807 21.9748 9.42387C19.1719 9.1289 16.453 11.1011 15.0252 11.1011C13.5688 11.1011 11.3701 9.45237 9.00034 9.50082C5.95087 9.54784 3.09805 11.3134 1.53342 14.0551C-1.6956 19.6453 0.712629 27.8603 3.80627 32.3789C5.3538 34.5919 7.16211 37.0629 9.52901 36.9759C11.8446 36.8805 12.7096 35.4997 15.504 35.4997C18.2727 35.4997 19.0849 36.9759 21.4989 36.9204C23.984 36.8805 25.5487 34.6974 27.0421 32.4644C28.8304 29.928 29.5486 27.43 29.5771 27.3017C29.5187 27.2818 24.7507 25.4621 24.7037 19.9574Z" fill="#0A044A"/>
<path d="M20.1435 6.45127C21.3889 4.89376 22.241 2.77481 22.0045 0.624512C20.2019 0.704311 17.9476 1.87137 16.6494 3.39468C15.5009 4.73702 14.4749 6.93719 14.7399 9.00627C16.7648 9.15732 18.8439 7.98456 20.1435 6.45127Z" fill="#0A044A"/>
<path d="M58.2153 36.658H54.9791L53.2064 31.0878H47.0448L45.3562 36.658H42.2056L48.3102 17.6943H52.0807L58.2153 36.658ZM52.6721 28.7508L51.069 23.799C50.8994 23.2931 50.5816 22.1018 50.1128 20.2265H50.0558C49.8691 21.0331 49.5685 22.2244 49.1552 23.799L47.5806 28.7508H52.6721Z" fill="#0A044A"/>
<path d="M73.9144 29.6528C73.9144 31.9783 73.2859 33.8166 72.0291 35.166C70.9034 36.3673 69.5055 36.9672 67.8368 36.9672C66.0356 36.9672 64.7417 36.3203 63.9537 35.0264H63.8967V42.2297H60.8587V27.4854C60.8587 26.0233 60.8202 24.5228 60.7461 22.9838H63.4179L63.5875 25.1512H63.6445C64.6577 23.5182 66.1952 22.7031 68.2586 22.7031C69.8717 22.7031 71.2183 23.3401 72.2956 24.6155C73.3757 25.8922 73.9144 27.5709 73.9144 29.6528ZM70.8193 29.7639C70.8193 28.433 70.5201 27.3358 69.9187 26.4722C69.2618 25.5716 68.3797 25.1213 67.2739 25.1213C66.5244 25.1213 65.8433 25.3721 65.2348 25.8666C64.6249 26.3653 64.2259 27.0166 64.0392 27.8231C63.9452 28.1993 63.8982 28.5071 63.8982 28.7493V31.0293C63.8982 32.0239 64.2031 32.8633 64.813 33.5487C65.4229 34.2341 66.2152 34.5761 67.1899 34.5761C68.3341 34.5761 69.2247 34.1343 69.8617 33.2537C70.5001 32.3716 70.8193 31.2089 70.8193 29.7639Z" fill="#0A044A"/>
<path d="M89.6424 29.6528C89.6424 31.9783 89.014 33.8166 87.7558 35.166C86.6315 36.3673 85.2335 36.9672 83.5649 36.9672C81.7637 36.9672 80.4698 36.3203 79.6832 35.0264H79.6262V42.2297H76.5882V27.4854C76.5882 26.0233 76.5497 24.5228 76.4756 22.9838H79.1474L79.317 25.1512H79.374C80.3857 23.5182 81.9233 22.7031 83.9881 22.7031C85.5998 22.7031 86.9464 23.3401 88.0265 24.6155C89.1024 25.8922 89.6424 27.5709 89.6424 29.6528ZM86.5474 29.7639C86.5474 28.433 86.2467 27.3358 85.6454 26.4722C84.9884 25.5716 84.1092 25.1213 83.002 25.1213C82.2511 25.1213 81.5713 25.3721 80.9614 25.8666C80.3515 26.3653 79.954 27.0166 79.7673 27.8231C79.6747 28.1993 79.6262 28.5071 79.6262 28.7493V31.0293C79.6262 32.0239 79.9312 32.8633 80.5382 33.5487C81.1481 34.2327 81.9404 34.5761 82.9179 34.5761C84.0622 34.5761 84.9528 34.1343 85.5898 33.2537C86.2282 32.3716 86.5474 31.2089 86.5474 29.7639Z" fill="#0A044A"/>
<path d="M107.226 31.34C107.226 32.9531 106.666 34.2655 105.541 35.2787C104.306 36.3859 102.586 36.9388 100.376 36.9388C98.3351 36.9388 96.6993 36.5455 95.4609 35.7575L96.1649 33.2253C97.4987 34.0318 98.9621 34.4365 100.557 34.4365C101.701 34.4365 102.592 34.1772 103.231 33.6613C103.868 33.1455 104.186 32.4529 104.186 31.5894C104.186 30.8199 103.924 30.1715 103.398 29.6457C102.875 29.1199 102.002 28.6311 100.782 28.1794C97.4616 26.9411 95.8029 25.1271 95.8029 22.7417C95.8029 21.1827 96.3843 19.9045 97.5485 18.9099C98.7085 17.9138 100.256 17.4165 102.191 17.4165C103.917 17.4165 105.35 17.7172 106.495 18.3171L105.735 20.7937C104.666 20.2123 103.458 19.9216 102.106 19.9216C101.037 19.9216 100.202 20.1852 99.6034 20.7096C99.0975 21.1785 98.8439 21.7499 98.8439 22.4268C98.8439 23.1763 99.1331 23.7962 99.7145 24.2835C100.22 24.7338 101.14 25.2211 102.473 25.747C104.105 26.4039 105.303 27.1719 106.074 28.0526C106.842 28.9304 107.226 30.029 107.226 31.34Z" fill="#0A044A"/>
<path d="M117.271 25.2639H113.923V31.9029C113.923 33.5915 114.513 34.4351 115.695 34.4351C116.238 34.4351 116.689 34.3881 117.045 34.294L117.129 36.6011C116.53 36.8248 115.742 36.9374 114.766 36.9374C113.566 36.9374 112.629 36.5711 111.952 35.8401C111.278 35.1077 110.939 33.8794 110.939 32.1537V25.261H108.944V22.9811H110.939V20.4774L113.923 19.5768V22.9811H117.271V25.2639Z" fill="#0A044A"/>
<path d="M132.38 29.7084C132.38 31.8102 131.778 33.5359 130.579 34.8854C129.32 36.2747 127.65 36.9673 125.568 36.9673C123.562 36.9673 121.965 36.3018 120.773 34.9709C119.582 33.6399 118.986 31.9599 118.986 29.935C118.986 27.816 119.599 26.0804 120.829 24.7309C122.056 23.38 123.712 22.7046 125.793 22.7046C127.8 22.7046 129.414 23.3701 130.633 24.7024C131.798 25.9949 132.38 27.6635 132.38 29.7084ZM129.228 29.8067C129.228 28.5456 128.958 27.464 128.413 26.562C127.776 25.4705 126.865 24.9261 125.685 24.9261C124.464 24.9261 123.536 25.4719 122.899 26.562C122.354 27.4655 122.084 28.5641 122.084 29.8637C122.084 31.1248 122.354 32.2064 122.899 33.107C123.556 34.1985 124.474 34.7429 125.658 34.7429C126.818 34.7429 127.729 34.1871 128.386 33.0785C128.946 32.1594 129.228 31.0664 129.228 29.8067Z" fill="#0A044A"/>
<path d="M142.255 25.6557C141.954 25.6001 141.634 25.5716 141.297 25.5716C140.229 25.5716 139.402 25.9749 138.821 26.7829C138.315 27.4953 138.061 28.3959 138.061 29.4832V36.658H135.024L135.053 27.2901C135.053 25.7141 135.014 24.2792 134.939 22.9853H137.585L137.696 25.6015H137.78C138.101 24.7024 138.607 23.9785 139.299 23.4356C139.976 22.9468 140.707 22.7031 141.495 22.7031C141.776 22.7031 142.03 22.7231 142.255 22.7587V25.6557Z" fill="#0A044A"/>
<path d="M155.842 29.1741C155.842 29.7185 155.807 30.1773 155.731 30.5521H146.617C146.652 31.903 147.093 32.9361 147.939 33.6486C148.707 34.2855 149.701 34.6047 150.92 34.6047C152.27 34.6047 153.501 34.3896 154.608 33.9578L155.084 36.0668C153.79 36.6311 152.263 36.9118 150.5 36.9118C148.38 36.9118 146.715 36.2876 145.504 35.0408C144.296 33.7939 143.69 32.1196 143.69 30.0191C143.69 27.9572 144.253 26.2401 145.38 24.8707C146.56 23.4086 148.154 22.6776 150.161 22.6776C152.132 22.6776 153.624 23.4086 154.637 24.8707C155.439 26.032 155.842 27.4684 155.842 29.1741ZM152.945 28.3861C152.965 27.4855 152.767 26.7075 152.355 26.0505C151.829 25.2055 151.021 24.7837 149.934 24.7837C148.941 24.7837 148.133 25.1956 147.516 26.0221C147.01 26.679 146.709 27.467 146.617 28.3847H152.945V28.3861Z" fill="#0A044A"/>
<path d="M51.6671 6.02822C51.6671 7.70543 51.1641 8.96796 50.1595 9.81583C49.229 10.5981 47.9066 10.99 46.1938 10.99C45.3445 10.99 44.6177 10.953 44.0093 10.8789V1.71479C44.803 1.58654 45.658 1.521 46.5814 1.521C48.213 1.521 49.4427 1.87582 50.2721 2.58546C51.2012 3.38773 51.6671 4.53484 51.6671 6.02822ZM50.0925 6.06955C50.0925 4.98228 49.8047 4.14867 49.229 3.56727C48.6533 2.9873 47.8126 2.69661 46.7053 2.69661C46.2351 2.69661 45.8347 2.72796 45.5027 2.79351V9.76026C45.6865 9.78876 46.0228 9.80158 46.5115 9.80158C47.6544 9.80158 48.5365 9.48381 49.1577 8.84827C49.779 8.21272 50.0925 7.28648 50.0925 6.06955Z" fill="#0A044A"/>
<path d="M60.0167 7.49313C60.0167 8.52625 59.7217 9.37269 59.1317 10.0367C58.5133 10.7193 57.6939 11.0599 56.6708 11.0599C55.6847 11.0599 54.8995 10.7335 54.3139 10.0781C53.7296 9.42399 53.4375 8.59892 53.4375 7.60428C53.4375 6.56404 53.7382 5.71048 54.3424 5.04786C54.9466 4.38524 55.7588 4.05322 56.7819 4.05322C57.768 4.05322 58.5603 4.37954 59.1602 5.03361C59.7302 5.66915 60.0167 6.48994 60.0167 7.49313ZM58.4677 7.54158C58.4677 6.92172 58.3337 6.3902 58.0673 5.94703C57.7538 5.41123 57.3078 5.14333 56.7278 5.14333C56.1279 5.14333 55.6719 5.41123 55.3584 5.94703C55.0905 6.3902 54.958 6.93027 54.958 7.56866C54.958 8.18853 55.0919 8.72005 55.3584 9.16321C55.6818 9.69901 56.1321 9.96691 56.7135 9.96691C57.2835 9.96691 57.731 9.69474 58.053 9.14897C58.3295 8.69725 58.4677 8.16145 58.4677 7.54158Z" fill="#0A044A"/>
<path d="M71.2102 4.18994L69.1083 10.9073H67.7403L66.8697 7.99037C66.6488 7.26221 66.4693 6.53832 66.3296 5.82012H66.3025C66.1729 6.55827 65.9933 7.28073 65.7625 7.99037L64.8377 10.9073H63.454L61.4775 4.18994H63.0122L63.7718 7.38333C63.9556 8.13857 64.1066 8.85819 64.2278 9.53933H64.2548C64.366 8.97789 64.5498 8.26255 64.8091 7.39758L65.7625 4.19137H66.9794L67.8928 7.32918C68.1137 8.0944 68.2932 8.83112 68.4315 9.54076H68.4728C68.574 8.84964 68.7264 8.11292 68.9288 7.32918L69.7439 4.19137H71.2102V4.18994Z" fill="#0A044A"/>
<path d="M78.953 10.9073H77.4596V7.05982C77.4596 5.87423 77.0093 5.28144 76.1059 5.28144C75.6627 5.28144 75.305 5.44389 75.0271 5.77021C74.7521 6.09653 74.6125 6.48128 74.6125 6.9216V10.9059H73.1191V6.10936C73.1191 5.51941 73.1006 4.87959 73.0649 4.18705H74.3773L74.4472 5.23727H74.4885C74.6624 4.91094 74.9217 4.64162 75.2623 4.42645C75.667 4.17565 76.1201 4.04883 76.616 4.04883C77.243 4.04883 77.7645 4.25118 78.1792 4.6573C78.6951 5.15462 78.953 5.89703 78.953 6.88312V10.9073Z" fill="#0A044A"/>
<path d="M83.0711 10.9073H81.5791V1.10767H83.0711V10.9073Z" fill="#0A044A"/>
<path d="M91.8629 7.49313C91.8629 8.52625 91.5679 9.37269 90.9779 10.0367C90.3595 10.7193 89.5387 11.0599 88.517 11.0599C87.5295 11.0599 86.7443 10.7335 86.1601 10.0781C85.5758 9.42399 85.2837 8.59892 85.2837 7.60428C85.2837 6.56404 85.5844 5.71048 86.1886 5.04786C86.7928 4.38524 87.605 4.05322 88.6267 4.05322C89.6142 4.05322 90.4051 4.37954 91.0064 5.03361C91.5764 5.66915 91.8629 6.48994 91.8629 7.49313ZM90.3125 7.54158C90.3125 6.92172 90.1785 6.3902 89.912 5.94703C89.6 5.41123 89.1525 5.14333 88.574 5.14333C87.9726 5.14333 87.5166 5.41123 87.2046 5.94703C86.9367 6.3902 86.8042 6.93027 86.8042 7.56866C86.8042 8.18853 86.9381 8.72005 87.2046 9.16321C87.528 9.69901 87.9783 9.96691 88.5597 9.96691C89.1297 9.96691 89.5757 9.69474 89.8978 9.14897C90.1757 8.69725 90.3125 8.16145 90.3125 7.54158Z" fill="#0A044A"/>
<path d="M99.0909 10.9074H97.75L97.6388 10.1336H97.5975C97.1386 10.7506 96.4846 11.0599 95.6353 11.0599C95.0012 11.0599 94.4882 10.8561 94.102 10.4514C93.7515 10.0838 93.5762 9.62634 93.5762 9.08342C93.5762 8.26263 93.9182 7.63706 94.6064 7.20386C95.2933 6.77067 96.2594 6.55834 97.5034 6.56832V6.44292C97.5034 5.55801 97.0389 5.11626 96.1084 5.11626C95.4458 5.11626 94.8615 5.28298 94.3571 5.61358L94.0535 4.63319C94.6777 4.24702 95.4486 4.05322 96.3578 4.05322C98.1133 4.05322 98.994 4.97946 98.994 6.83194V9.30571C98.994 9.97688 99.0268 10.5113 99.0909 10.9074ZM97.5405 8.59892V7.56296C95.8932 7.53446 95.0696 7.98618 95.0696 8.91669C95.0696 9.26724 95.1636 9.52944 95.356 9.70471C95.5484 9.87998 95.7935 9.96691 96.0856 9.96691C96.4133 9.96691 96.7197 9.86288 96.999 9.65626C97.2797 9.44821 97.4521 9.18459 97.5163 8.86112C97.5319 8.78844 97.5405 8.7001 97.5405 8.59892Z" fill="#0A044A"/>
<path d="M107.577 10.9073H106.252L106.182 9.82857H106.141C105.717 10.6494 104.996 11.0598 103.983 11.0598C103.174 11.0598 102.5 10.742 101.965 10.1064C101.431 9.4709 101.165 8.64583 101.165 7.63267C101.165 6.54541 101.454 5.66476 102.035 4.99217C102.598 4.36518 103.288 4.05168 104.109 4.05168C105.011 4.05168 105.642 4.35521 106.001 4.96367H106.029V1.10767H107.524V9.09755C107.524 9.75162 107.541 10.3544 107.577 10.9073ZM106.029 8.07441V6.95438C106.029 6.76058 106.015 6.60383 105.988 6.48413C105.904 6.12504 105.723 5.82294 105.448 5.57927C105.17 5.33559 104.835 5.21305 104.449 5.21305C103.892 5.21305 103.456 5.43392 103.135 5.87709C102.818 6.32026 102.657 6.88598 102.657 7.57709C102.657 8.24114 102.809 8.77978 103.115 9.19445C103.439 9.6362 103.875 9.85707 104.421 9.85707C104.911 9.85707 105.303 9.67325 105.601 9.30418C105.888 8.9636 106.029 8.55321 106.029 8.07441Z" fill="#0A044A"/>
<path d="M120.349 7.49313C120.349 8.52625 120.054 9.37269 119.464 10.0367C118.845 10.7193 118.027 11.0599 117.003 11.0599C116.018 11.0599 115.233 10.7335 114.646 10.0781C114.062 9.42399 113.77 8.59892 113.77 7.60428C113.77 6.56404 114.07 5.71048 114.674 5.04786C115.279 4.38524 116.091 4.05322 117.115 4.05322C118.1 4.05322 118.894 4.37954 119.492 5.03361C120.062 5.66915 120.349 6.48994 120.349 7.49313ZM118.801 7.54158C118.801 6.92172 118.667 6.3902 118.401 5.94703C118.086 5.41123 117.641 5.14333 117.06 5.14333C116.461 5.14333 116.005 5.41123 115.69 5.94703C115.423 6.3902 115.29 6.93027 115.29 7.56866C115.29 8.18853 115.424 8.72005 115.69 9.16321C116.014 9.69901 116.464 9.96691 117.046 9.96691C117.616 9.96691 118.064 9.69474 118.386 9.14897C118.662 8.69725 118.801 8.16145 118.801 7.54158Z" fill="#0A044A"/>
<path d="M128.378 10.9073H126.886V7.05982C126.886 5.87423 126.436 5.28144 125.531 5.28144C125.088 5.28144 124.73 5.44389 124.453 5.77021C124.177 6.09653 124.039 6.48128 124.039 6.9216V10.9059H122.544V6.10936C122.544 5.51941 122.527 4.87959 122.491 4.18705H123.802L123.872 5.23727H123.913C124.089 4.91094 124.348 4.64162 124.687 4.42645C125.093 4.17565 125.545 4.04883 126.042 4.04883C126.668 4.04883 127.189 4.25118 127.604 4.6573C128.121 5.15462 128.378 5.89703 128.378 6.88312V10.9073Z" fill="#0A044A"/>
<path d="M138.429 5.30851H136.784V8.57173C136.784 9.40107 137.076 9.81574 137.655 9.81574C137.923 9.81574 138.145 9.79294 138.32 9.74591L138.359 10.8788C138.064 10.9899 137.676 11.0455 137.199 11.0455C136.609 11.0455 136.15 10.866 135.818 10.5069C135.485 10.1478 135.319 9.54356 135.319 8.6957V5.30851H134.337V4.1899H135.319V2.95871L136.783 2.51697V4.18847H138.427V5.30851H138.429Z" fill="#0A044A"/>
<path d="M146.335 10.9073H144.84V7.08833C144.84 5.88421 144.39 5.28144 143.488 5.28144C142.795 5.28144 142.322 5.63057 142.063 6.32881C142.019 6.47558 141.993 6.65513 141.993 6.86603V10.9059H140.501V1.10767H141.993V5.15605H142.021C142.492 4.41933 143.166 4.05168 144.039 4.05168C144.658 4.05168 145.169 4.25403 145.575 4.66015C146.081 5.16602 146.335 5.91841 146.335 6.91305V10.9073Z" fill="#0A044A"/>
<path d="M154.489 7.2307C154.489 7.4986 154.469 7.72375 154.434 7.90757H149.955C149.975 8.57161 150.189 9.07748 150.603 9.42803C150.982 9.74152 151.471 9.89827 152.07 9.89827C152.732 9.89827 153.336 9.79282 153.881 9.5805L154.114 10.6179C153.477 10.8943 152.728 11.0326 151.86 11.0326C150.82 11.0326 150 10.7262 149.408 10.1134C148.812 9.5007 148.517 8.67849 148.517 7.6468C148.517 6.63363 148.792 5.79004 149.346 5.11745C149.925 4.39926 150.707 4.04016 151.695 4.04016C152.661 4.04016 153.395 4.39926 153.891 5.11745C154.291 5.68744 154.489 6.39281 154.489 7.2307ZM153.064 6.84453C153.076 6.40136 152.977 6.01946 152.775 5.69742C152.516 5.28275 152.121 5.0747 151.587 5.0747C151.099 5.0747 150.702 5.27705 150.398 5.68317C150.15 6.00664 150.003 6.39281 149.955 6.84453H153.064Z" fill="#0A044A"/>
</svg>
