<svg width="90" height="25" viewBox="0 0 90 25" fill="none" xmlns="http://www.w3.org/2000/svg">
<path d="M14.5441 11.404C14.5205 8.77958 16.693 7.50279 16.7923 7.44335C15.562 5.6495 13.6549 5.4044 12.9848 5.38486C11.3831 5.2163 9.82945 6.34326 9.01355 6.34326C8.18136 6.34326 6.92493 5.40115 5.57078 5.42883C3.82823 5.4557 2.19805 6.46459 1.30397 8.03126C-0.541177 11.2257 0.834951 15.92 2.60275 18.502C3.48705 19.7666 4.52037 21.1786 5.87288 21.1289C7.19608 21.0743 7.69035 20.2853 9.28714 20.2853C10.8693 20.2853 11.3334 21.1289 12.7128 21.0971C14.1329 21.0743 15.027 19.8269 15.8803 18.5509C16.9023 17.1015 17.3127 15.6741 17.3289 15.6008C17.2956 15.5894 14.571 14.5495 14.5441 11.404Z" fill="white"/>
<path d="M11.938 3.68651C12.6497 2.79651 13.1366 1.58568 13.0015 0.356934C11.9714 0.402533 10.6832 1.06943 9.9414 1.93989C9.28509 2.70694 8.69881 3.96418 8.85027 5.14651C10.0074 5.23282 11.1954 4.56267 11.938 3.68651Z" fill="white"/>
<path d="M33.6904 20.9477H31.8412L30.8282 17.7647H27.3073L26.3424 20.9477H24.542L28.0304 10.1113H30.1849L33.6904 20.9477ZM30.5229 16.4293L29.6068 13.5997C29.5099 13.3106 29.3283 12.6299 29.0604 11.5583H29.0278C28.9212 12.0192 28.7494 12.6999 28.5132 13.5997L27.6134 16.4293H30.5229Z" fill="white"/>
<path d="M42.6624 16.9449C42.6624 18.2738 42.3033 19.3242 41.5851 20.0953C40.9419 20.7817 40.1431 21.1245 39.1895 21.1245C38.1603 21.1245 37.4209 20.7549 36.9706 20.0155H36.9381V24.1317H35.202V15.7063C35.202 14.8709 35.18 14.0135 35.1377 13.134H36.6645L36.7614 14.3726H36.7939C37.3729 13.4394 38.2515 12.9736 39.4306 12.9736C40.3523 12.9736 41.1218 13.3376 41.7374 14.0664C42.3546 14.796 42.6624 15.7552 42.6624 16.9449ZM40.8938 17.0084C40.8938 16.2478 40.7228 15.6208 40.3792 15.1274C40.0038 14.6128 39.4998 14.3555 38.8679 14.3555C38.4396 14.3555 38.0504 14.4988 37.7027 14.7813C37.3542 15.0663 37.1262 15.4384 37.0195 15.8993C36.9657 16.1143 36.9389 16.2902 36.9389 16.4286V17.7315C36.9389 18.2998 37.1131 18.7794 37.4616 19.1711C37.8102 19.5628 38.2629 19.7582 38.8199 19.7582C39.4737 19.7582 39.9826 19.5058 40.3466 19.0025C40.7114 18.4985 40.8938 17.8341 40.8938 17.0084Z" fill="white"/>
<path d="M51.6509 16.9449C51.6509 18.2738 51.2918 19.3242 50.5728 20.0953C49.9303 20.7817 49.1315 21.1245 48.178 21.1245C47.1487 21.1245 46.4094 20.7549 45.9599 20.0155H45.9273V24.1317H44.1913V15.7063C44.1913 14.8709 44.1693 14.0135 44.127 13.134H45.6537L45.7506 14.3726H45.7832C46.3613 13.4394 47.2399 12.9736 48.4198 12.9736C49.3408 12.9736 50.1103 13.3376 50.7275 14.0664C51.3423 14.796 51.6509 15.7552 51.6509 16.9449ZM49.8823 17.0084C49.8823 16.2478 49.7104 15.6208 49.3668 15.1274C48.9914 14.6128 48.489 14.3555 47.8563 14.3555C47.4272 14.3555 47.0388 14.4988 46.6903 14.7813C46.3418 15.0663 46.1146 15.4384 46.0079 15.8993C45.955 16.1143 45.9273 16.2902 45.9273 16.4286V17.7315C45.9273 18.2998 46.1016 18.7794 46.4485 19.1711C46.797 19.5619 47.2497 19.7582 47.8083 19.7582C48.4622 19.7582 48.9711 19.5058 49.3351 19.0025C49.6999 18.4985 49.8823 17.8341 49.8823 17.0084Z" fill="white"/>
<path d="M61.6973 17.9092C61.6973 18.8309 61.3773 19.5809 60.7348 20.1598C60.0288 20.7925 59.046 21.1085 57.7831 21.1085C56.617 21.1085 55.6822 20.8837 54.9746 20.4334L55.3769 18.9865C56.139 19.4473 56.9753 19.6786 57.8865 19.6786C58.5403 19.6786 59.0493 19.5304 59.4149 19.2356C59.7789 18.9409 59.9604 18.5451 59.9604 18.0517C59.9604 17.612 59.8106 17.2415 59.5101 16.941C59.2113 16.6405 58.7121 16.3612 58.0151 16.1031C56.1179 15.3955 55.17 14.3589 55.17 12.9958C55.17 12.105 55.5023 11.3746 56.1675 10.8062C56.8304 10.2371 57.7147 9.95288 58.8204 9.95288C59.8065 9.95288 60.6257 10.1247 61.2796 10.4675L60.8456 11.8827C60.2348 11.5505 59.5443 11.3844 58.7716 11.3844C58.1609 11.3844 57.6837 11.535 57.3417 11.8347C57.0527 12.1026 56.9077 12.4291 56.9077 12.8159C56.9077 13.2442 57.073 13.5984 57.4052 13.8769C57.6943 14.1342 58.2195 14.4127 58.9817 14.7131C59.914 15.0885 60.5988 15.5274 61.0394 16.0306C61.4783 16.5322 61.6973 17.16 61.6973 17.9092Z" fill="white"/>
<path d="M67.4383 14.437H65.5248V18.2307C65.5248 19.1957 65.8619 19.6777 66.5377 19.6777C66.848 19.6777 67.1053 19.6508 67.3088 19.5971L67.3569 20.9154C67.0149 21.0433 66.5646 21.1076 66.0068 21.1076C65.3212 21.1076 64.7854 20.8983 64.3986 20.4806C64.0135 20.0621 63.8197 19.3602 63.8197 18.3741V14.4354H62.6797V13.1326H63.8197V11.7019L65.5248 11.1873V13.1326H67.4383V14.437Z" fill="white"/>
<path d="M76.0704 16.9768C76.0704 18.1778 75.7268 19.1639 75.0411 19.935C74.3221 20.729 73.3678 21.1247 72.1781 21.1247C71.0316 21.1247 70.1188 20.7444 69.4381 19.9839C68.7574 19.2234 68.417 18.2633 68.417 17.1062C68.417 15.8954 68.7671 14.9036 69.4699 14.1325C70.1709 13.3606 71.1171 12.9746 72.3068 12.9746C73.4533 12.9746 74.3759 13.3549 75.0721 14.1162C75.7382 14.8548 76.0704 15.8083 76.0704 16.9768ZM74.2692 17.033C74.2692 16.3123 74.1153 15.6943 73.8034 15.1789C73.4395 14.5551 72.9191 14.2441 72.2449 14.2441C71.5471 14.2441 71.017 14.5559 70.653 15.1789C70.3411 15.6951 70.1872 16.3229 70.1872 17.0655C70.1872 17.7862 70.3411 18.4042 70.653 18.9188C71.0284 19.5426 71.5528 19.8536 72.2294 19.8536C72.8923 19.8536 73.4126 19.5361 73.788 18.9025C74.108 18.3773 74.2692 17.7528 74.2692 17.033Z" fill="white"/>
<path d="M81.7118 14.6608C81.5399 14.6291 81.3567 14.6128 81.1646 14.6128C80.5538 14.6128 80.0816 14.8432 79.7493 15.3049C79.4603 15.712 79.3153 16.2267 79.3153 16.848V20.9478H77.5801L77.5964 15.5948C77.5964 14.6942 77.5744 13.8742 77.5312 13.1349H79.0434L79.1069 14.6299H79.1549C79.3381 14.1161 79.6272 13.7024 80.0229 13.3922C80.4097 13.1129 80.8274 12.9736 81.2777 12.9736C81.4382 12.9736 81.5831 12.985 81.7118 13.0054V14.6608Z" fill="white"/>
<path d="M89.4754 16.6713C89.4754 16.9823 89.455 17.2445 89.4119 17.4587H84.2038C84.2241 18.2306 84.4757 18.821 84.9594 19.2281C85.3983 19.5921 85.9659 19.7745 86.6629 19.7745C87.434 19.7745 88.1375 19.6515 88.7702 19.4048L89.0422 20.6099C88.3028 20.9324 87.4299 21.0928 86.4227 21.0928C85.211 21.0928 84.26 20.7361 83.5678 20.0236C82.8773 19.3112 82.5312 18.3544 82.5312 17.1541C82.5312 15.9759 82.8529 14.9947 83.497 14.2122C84.1712 13.3767 85.0824 12.959 86.2289 12.959C87.355 12.959 88.2076 13.3767 88.7865 14.2122C89.245 14.8758 89.4754 15.6966 89.4754 16.6713ZM87.82 16.221C87.8314 15.7064 87.7182 15.2618 87.4829 14.8864C87.1824 14.4035 86.7207 14.1625 86.0994 14.1625C85.5319 14.1625 85.0702 14.3978 84.7176 14.8701C84.4285 15.2455 84.2567 15.6958 84.2038 16.2202H87.82V16.221Z" fill="white"/>
<path d="M29.9531 3.44519C29.9531 4.40359 29.6656 5.12504 29.0916 5.60953C28.5598 6.05657 27.8042 6.2805 26.8254 6.2805C26.3401 6.2805 25.9248 6.25933 25.5771 6.21698V0.98037C26.0307 0.907085 26.5193 0.869629 27.0469 0.869629C27.9793 0.869629 28.682 1.07238 29.1559 1.47789C29.6868 1.93633 29.9531 2.59182 29.9531 3.44519ZM29.0533 3.4688C29.0533 2.84751 28.8888 2.37115 28.5598 2.03893C28.2309 1.70752 27.7505 1.54141 27.1178 1.54141C26.849 1.54141 26.6202 1.55932 26.4305 1.59678V5.57778C26.5356 5.59406 26.7277 5.60139 27.007 5.60139C27.6601 5.60139 28.1641 5.41981 28.5191 5.05664C28.8742 4.69347 29.0533 4.16419 29.0533 3.4688Z" fill="white"/>
<path d="M34.7234 4.28183C34.7234 4.87218 34.5548 5.35586 34.2177 5.73531C33.8643 6.12535 33.3961 6.31996 32.8115 6.31996C32.248 6.31996 31.7993 6.13349 31.4646 5.75892C31.1308 5.38517 30.9639 4.9137 30.9639 4.34534C30.9639 3.75092 31.1357 3.26317 31.4809 2.88453C31.8262 2.50589 32.2903 2.31616 32.875 2.31616C33.4385 2.31616 33.8912 2.50263 34.234 2.87638C34.5597 3.23955 34.7234 3.70858 34.7234 4.28183ZM33.8383 4.30951C33.8383 3.9553 33.7617 3.65158 33.6095 3.39834C33.4303 3.09217 33.1754 2.93908 32.844 2.93908C32.5012 2.93908 32.2407 3.09217 32.0615 3.39834C31.9084 3.65158 31.8327 3.96019 31.8327 4.32498C31.8327 4.67919 31.9092 4.98292 32.0615 5.23616C32.2464 5.54233 32.5037 5.69541 32.8359 5.69541C33.1616 5.69541 33.4173 5.53988 33.6013 5.22802C33.7593 4.96989 33.8383 4.66372 33.8383 4.30951Z" fill="white"/>
<path d="M41.1182 2.39429L39.9171 6.23279H39.1354L38.6379 4.56596C38.5117 4.14987 38.4091 3.73622 38.3293 3.32582H38.3138C38.2397 3.74762 38.1371 4.16045 38.0052 4.56596L37.4767 6.23279H36.686L35.5566 2.39429H36.4336L36.8676 4.21908C36.9727 4.65065 37.059 5.06186 37.1282 5.45108H37.1437C37.2072 5.13026 37.3122 4.72149 37.4604 4.22722L38.0052 2.3951H38.7006L39.2225 4.18814C39.3487 4.62541 39.4513 5.04639 39.5303 5.4519H39.5539C39.6117 5.05697 39.6989 4.63599 39.8145 4.18814L40.2803 2.3951H41.1182V2.39429Z" fill="white"/>
<path d="M45.5453 6.23308H44.6919V4.03453C44.6919 3.35705 44.4346 3.01831 43.9183 3.01831C43.6651 3.01831 43.4607 3.11114 43.3019 3.29761C43.1448 3.48408 43.065 3.70394 43.065 3.95555V6.23227H42.2116V3.49141C42.2116 3.1543 42.201 2.78869 42.1807 2.39295H42.9306L42.9705 2.99307H42.9941C43.0935 2.8066 43.2417 2.6527 43.4363 2.52975C43.6675 2.38644 43.9265 2.31396 44.2098 2.31396C44.5681 2.31396 44.8661 2.42959 45.1031 2.66166C45.3979 2.94584 45.5453 3.37008 45.5453 3.93356V6.23308Z" fill="white"/>
<path d="M47.8965 6.23308H47.0439V0.633301H47.8965V6.23308Z" fill="white"/>
<path d="M52.9216 4.28183C52.9216 4.87218 52.7531 5.35586 52.416 5.73531C52.0626 6.12535 51.5935 6.31996 51.0097 6.31996C50.4454 6.31996 49.9967 6.13349 49.6629 5.75892C49.329 5.38517 49.1621 4.9137 49.1621 4.34534C49.1621 3.75092 49.3339 3.26317 49.6792 2.88453C50.0244 2.50589 50.4886 2.31616 51.0724 2.31616C51.6367 2.31616 52.0886 2.50263 52.4322 2.87638C52.758 3.23955 52.9216 3.70858 52.9216 4.28183ZM52.0357 4.30951C52.0357 3.9553 51.9592 3.65158 51.8069 3.39834C51.6286 3.09217 51.3729 2.93908 51.0423 2.93908C50.6986 2.93908 50.4381 3.09217 50.2598 3.39834C50.1067 3.65158 50.0309 3.96019 50.0309 4.32498C50.0309 4.67919 50.1075 4.98292 50.2598 5.23616C50.4446 5.54233 50.7019 5.69541 51.0341 5.69541C51.3598 5.69541 51.6147 5.53988 51.7987 5.22802C51.9575 4.96989 52.0357 4.66372 52.0357 4.30951Z" fill="white"/>
<path d="M57.0536 6.23283H56.2874L56.2239 5.79068H56.2002C55.938 6.14326 55.5643 6.31996 55.079 6.31996C54.7166 6.31996 54.4235 6.20352 54.2028 5.97226C54.0025 5.76218 53.9023 5.5008 53.9023 5.19056C53.9023 4.72154 54.0978 4.36407 54.4911 4.11653C54.8835 3.86899 55.4356 3.74766 56.1465 3.75336V3.6817C56.1465 3.17604 55.881 2.92361 55.3493 2.92361C54.9707 2.92361 54.6368 3.01888 54.3486 3.2078L54.1751 2.64757C54.5318 2.4269 54.9723 2.31616 55.4918 2.31616C56.495 2.31616 56.9982 2.84544 56.9982 3.904V5.31759C56.9982 5.70111 57.017 6.00646 57.0536 6.23283ZM56.1677 4.9137V4.32173C55.2264 4.30544 54.7557 4.56357 54.7557 5.09529C54.7557 5.2956 54.8095 5.44543 54.9194 5.54558C55.0293 5.64574 55.1694 5.69541 55.3363 5.69541C55.5236 5.69541 55.6986 5.63597 55.8582 5.5179C56.0187 5.39901 56.1172 5.24837 56.1538 5.06353C56.1628 5.022 56.1677 4.97152 56.1677 4.9137Z" fill="white"/>
<path d="M61.9025 6.23308H61.1452L61.1053 5.61667H61.0817C60.8399 6.0857 60.4279 6.32021 59.8489 6.32021C59.3864 6.32021 59.0013 6.13863 58.6959 5.77546C58.3905 5.41229 58.2383 4.94082 58.2383 4.36187C58.2383 3.74058 58.4036 3.23736 58.7358 2.85302C59.0574 2.49474 59.4515 2.3156 59.9206 2.3156C60.436 2.3156 60.7967 2.48904 61.0019 2.83673H61.0182V0.633301H61.8724V5.19895C61.8724 5.5727 61.8822 5.91714 61.9025 6.23308ZM61.0182 4.6143V3.97428C61.0182 3.86354 61.0101 3.77397 60.9946 3.70557C60.9466 3.50037 60.8431 3.32774 60.686 3.1885C60.5272 3.04926 60.3359 2.97923 60.1152 2.97923C59.7968 2.97923 59.5476 3.10544 59.3644 3.35868C59.1828 3.61192 59.0908 3.93519 59.0908 4.33012C59.0908 4.70957 59.178 5.01737 59.353 5.25432C59.5379 5.50675 59.787 5.63296 60.0989 5.63296C60.379 5.63296 60.6029 5.52792 60.7731 5.31702C60.9376 5.12241 61.0182 4.8879 61.0182 4.6143Z" fill="white"/>
<path d="M69.2009 4.28183C69.2009 4.87218 69.0324 5.35586 68.6953 5.73531C68.3419 6.12535 67.8745 6.31996 67.289 6.31996C66.7263 6.31996 66.2777 6.13349 65.9422 5.75892C65.6083 5.38517 65.4414 4.9137 65.4414 4.34534C65.4414 3.75092 65.6132 3.26317 65.9585 2.88453C66.3037 2.50589 66.7679 2.31616 67.3533 2.31616C67.916 2.31616 68.3695 2.50263 68.7115 2.87638C69.0373 3.23955 69.2009 3.70858 69.2009 4.28183ZM68.3166 4.30951C68.3166 3.9553 68.2401 3.65158 68.0878 3.39834C67.9078 3.09217 67.6538 2.93908 67.3216 2.93908C66.9796 2.93908 66.719 3.09217 66.539 3.39834C66.386 3.65158 66.3102 3.96019 66.3102 4.32498C66.3102 4.67919 66.3868 4.98292 66.539 5.23616C66.7239 5.54233 66.9812 5.69541 67.3134 5.69541C67.6391 5.69541 67.8956 5.53988 68.0797 5.22802C68.2368 4.96989 68.3166 4.66372 68.3166 4.30951Z" fill="white"/>
<path d="M73.7886 6.23308H72.936V4.03453C72.936 3.35705 72.6787 3.01831 72.1617 3.01831C71.9084 3.01831 71.704 3.11114 71.5461 3.29761C71.3881 3.48408 71.3091 3.70394 71.3091 3.95555V6.23227H70.4549V3.49141C70.4549 3.1543 70.4452 2.78869 70.4248 2.39295H71.1739L71.2138 2.99307H71.2375C71.3376 2.8066 71.4858 2.6527 71.6796 2.52975C71.9117 2.38644 72.1698 2.31396 72.454 2.31396C72.8115 2.31396 73.1095 2.42959 73.3464 2.66166C73.642 2.94584 73.7886 3.37008 73.7886 3.93356V6.23308Z" fill="white"/>
<path d="M79.5331 3.03364H78.5934V4.89834C78.5934 5.37225 78.7604 5.6092 79.0909 5.6092C79.244 5.6092 79.3711 5.59617 79.4712 5.5693L79.4932 6.21665C79.3246 6.28017 79.1032 6.31192 78.8304 6.31192C78.4933 6.31192 78.2311 6.20932 78.0413 6.00413C77.8508 5.79893 77.7563 5.45367 77.7563 4.96918V3.03364H77.1953V2.39444H77.7563V1.6909L78.5926 1.43848V2.39362H79.5323V3.03364H79.5331Z" fill="white"/>
<path d="M84.0465 6.23308H83.1924V4.05082C83.1924 3.36276 82.9351 3.01832 82.4196 3.01832C82.0239 3.01832 81.7535 3.21781 81.6053 3.61681C81.5801 3.70068 81.5654 3.80328 81.5654 3.92379V6.23227H80.7129V0.633301H81.5654V2.94666H81.5817C81.8504 2.52568 82.2356 2.3156 82.7347 2.3156C83.0881 2.3156 83.3805 2.43122 83.6125 2.66329C83.9016 2.95236 84.0465 3.3823 84.0465 3.95066V6.23308Z" fill="white"/>
<path d="M88.7076 4.13225C88.7076 4.28533 88.6962 4.41399 88.6758 4.51903H86.1165C86.1279 4.89848 86.2501 5.18755 86.487 5.38786C86.7036 5.567 86.9829 5.65657 87.3249 5.65657C87.7036 5.65657 88.0488 5.59632 88.3599 5.47499L88.4934 6.06778C88.1294 6.22575 87.7011 6.30474 87.2052 6.30474C86.6108 6.30474 86.1426 6.12967 85.8038 5.77953C85.4635 5.42939 85.2949 4.95955 85.2949 4.37002C85.2949 3.79107 85.4521 3.30901 85.7688 2.92468C86.0994 2.51428 86.5465 2.30908 87.1108 2.30908C87.6628 2.30908 88.0822 2.51428 88.3656 2.92468C88.5944 3.25039 88.7076 3.65345 88.7076 4.13225ZM87.8933 3.91158C87.8998 3.65834 87.8436 3.44011 87.728 3.25609C87.5798 3.01913 87.3542 2.90025 87.0489 2.90025C86.7704 2.90025 86.5432 3.01587 86.3698 3.24794C86.2281 3.43278 86.1442 3.65345 86.1165 3.91158H87.8933Z" fill="white"/>
</svg>
