<svg width="1600" height="903" viewBox="0 0 1600 903" fill="none" xmlns="http://www.w3.org/2000/svg">
<g opacity="0.5">
<mask id="mask0" mask-type="alpha" maskUnits="userSpaceOnUse" x="0" y="0" width="1600" height="903">
<rect width="1600" height="903" fill="#575CCE"/>
</mask>
<g mask="url(#mask0)">
<g opacity="0.08">
<path d="M-11.2198 348.983L102.936 575.14L-88.7593 536.37L-11.2198 348.983Z" fill="white"/>
<path opacity="0.32" d="M-88.7593 536.37L102.936 575.14L-174.914 693.603L-88.7593 536.37Z" fill="white"/>
<path opacity="0.6" d="M364.631 228.366L595.096 242.366L304.323 351.136L364.631 228.366Z" fill="white"/>
<path opacity="0.32" d="M658.634 93.7496L594.018 242.367L759.866 134.673L658.634 93.7496Z" fill="white"/>
<path opacity="0.24" d="M96.4757 908.991L306.479 351.137L102.937 575.14L96.4757 908.991Z" fill="white"/>
<path opacity="0.32" d="M385.094 -55.945L364.632 231.597L198.784 40.9794L385.094 -55.945Z" fill="white"/>
<path opacity="0.6" d="M436.785 734.526L576.787 519.138L216.013 592.37L436.785 734.526Z" fill="white"/>
<path opacity="0.32" d="M438.94 733.449L498.172 947.76L536.941 733.449H438.94Z" fill="white"/>
<path d="M242.937 1005.91L435.709 733.449L96.4737 908.99L242.937 1005.91Z" fill="white"/>
<path opacity="0.32" d="M-4.75638 230.52L306.479 350.06L-11.218 348.983L-4.75638 230.52Z" fill="white"/>
<path d="M-21.9892 855.144L102.936 575.14L-174.914 693.603L-21.9892 855.144Z" fill="white"/>
<path d="M533.711 940.222L636.02 981.146L673.713 847.606L533.711 940.222Z" fill="white"/>
<path opacity="0.5" d="M636.02 516.985V743.142L573.557 676.372L636.02 516.985Z" fill="white"/>
<path opacity="0.32" d="M780.329 756.065L846.022 820.682L853.561 702.219L780.329 756.065Z" fill="white"/>
<path d="M927.728 816.375L927.728 863.633L1044.18 848.683L927.728 816.375Z" fill="white"/>
<path opacity="0.32" d="M798.178 448.756L784.637 336.06L687.712 486.831L798.178 448.756Z" fill="white"/>
<path d="M-21.9885 855.144L96.4746 908.991L-135.067 1107.15L-21.9885 855.144Z" fill="white"/>
</g>
<path opacity="0.04" d="M1427 538.007L1623.56 442.436L1561.27 623.597L1427 538.007Z" fill="white"/>
<path opacity="0.04" d="M1299.56 67.9333L1162.73 94.3616L1231.01 -6.87329L1299.56 67.9333Z" fill="white"/>
<path opacity="0.04" d="M1239.16 734L1292.4 843.511L1191.47 808.807L1239.16 734Z" fill="white"/>
</g>
</g>
</svg>
