<svg width="228" height="158" viewBox="0 0 228 158" fill="none" xmlns="http://www.w3.org/2000/svg">
<path d="M35 35H19.5C13.7 35 9 39.7 9 45.5C9 51.3 13.7 56 19.5 56H75.5C81.3 56 86 60.7 86 66.5V68" stroke="#0A044A" stroke-width="2" stroke-miterlimit="10" stroke-linecap="round" stroke-linejoin="round"/>
<path d="M61 26C63.2091 26 65 24.2091 65 22C65 19.7909 63.2091 18 61 18C58.7909 18 57 19.7909 57 22C57 24.2091 58.7909 26 61 26Z" stroke="#0A044A" stroke-width="2" stroke-miterlimit="10" stroke-linecap="round" stroke-linejoin="round"/>
<path d="M74 19H136" stroke="#0A044A" stroke-width="2" stroke-miterlimit="10" stroke-linecap="round" stroke-linejoin="round"/>
<path d="M74 25H92" stroke="#0A044A" stroke-width="2" stroke-miterlimit="10" stroke-linecap="round" stroke-linejoin="round"/>
<path d="M61 43C63.2091 43 65 41.2091 65 39C65 36.7909 63.2091 35 61 35C58.7909 35 57 36.7909 57 39C57 41.2091 58.7909 43 61 43Z" stroke="#0A044A" stroke-width="2" stroke-miterlimit="10" stroke-linecap="round" stroke-linejoin="round"/>
<path d="M74 36H136" stroke="#0A044A" stroke-width="2" stroke-miterlimit="10" stroke-linecap="round" stroke-linejoin="round"/>
<path d="M74 42H123" stroke="#0A044A" stroke-width="2" stroke-miterlimit="10" stroke-linecap="round" stroke-linejoin="round"/>
<path d="M35 81V14.8C35 7.2 41.2 1 48.8 1H212.3C219.9 1 226.1 7.2 226.1 14.8V120.3C226.1 127.9 219.9 134.1 212.3 134.1H168M170 130H212.2C217.6 130 222 125.6 222 120.2V14.8C222 9.4 217.6 5 212.2 5H48.8C43.4 5 39 9.4 39 14.8V81" stroke="#0A044A" stroke-width="2" stroke-miterlimit="10" stroke-linecap="round" stroke-linejoin="round"/>
<path d="M174.2 71.5997C174.7 72.2997 175.1 73.1997 175.3 74.0997C175.9 76.7997 176.9 79.7997 178.1 82.9997C178.8 84.8997 179.4 86.8997 180 88.7997C180.2 89.5997 180.7 90.5997 181.2 91.6997C181.6 92.6997 182 93.5997 182.2 94.0997C183.1 97.2997 184.5 102.6 185.1 109C185.3 110.8 185.2 112.2 185.2 112.9C186.2 113.1 187.5 113.3 188.8 113.5C189.3 113.6 189.8 113.7 190.3 113.9C190.3 113.6 190.2 113.4 190.2 113.1C190.2 111.4 190.5 108.2 190.8 105.4C191 103.9 191.1 102.5 191.2 101.4C191.6 96.0997 190.6 94.1997 189.5 92.2997C189.1 91.5997 188.7 90.8997 188.4 89.9997C187.3 86.6997 187.5 77.8997 187.5 77.7997C187.5 77.3997 187.5 76.4997 187.5 75.5997C187.5 73.9997 187.6 72.0997 187.5 71.6997C187.3 69.0997 186.6 67.2997 186 65.8997C185.8 65.2997 185.5 64.7997 185.4 64.1997C184.9 62.5997 184.3 61.3997 183.7 60.2997C183 59.0997 182.5 57.9997 182.3 56.7997C182 54.1997 182.7 51.6997 183.2 49.9997C183.3 49.4997 183.4 49.0997 183.5 48.7997C183.6 48.1997 183.8 47.5997 183.9 46.8997C184.2 45.6997 184.6 44.3997 184.8 42.5997C185.6 43.5997 186.9 45.6997 187.7 46.8997L188.1 47.5997C188.9 48.8997 190.1 50.7997 190.3 51.3997C190.4 51.4997 190.4 51.7997 190.5 51.9997C190.9 53.1997 191.7 55.0997 192.1 55.8997C192.6 56.6997 195.4 60.3997 197.1 62.6997L197.6 63.3997C198.1 63.9997 198.4 64.4997 198.6 64.9997C199.2 64.3997 200 63.7997 200.9 63.3997C201.2 63.2997 201.4 63.1997 201.7 63.0997C201.5 62.6997 201.2 62.3997 201 61.8997C200.5 60.7997 199.7 58.7997 199 56.7997C198.5 55.4997 198.1 54.1997 197.6 53.0997C196.9 51.1997 196.1 50.2997 195.4 49.3997C195 48.8997 194.6 48.3997 194.2 47.7997C193.7 46.9997 192.8 44.6997 191.9 42.2997C190.9 39.5997 189.7 36.5997 188.8 34.8997C187.6 32.6997 185.9 32.0997 184 31.3997C183 30.9997 182 30.6997 180.9 30.0997C180.7 29.9997 180.5 29.7997 180.3 29.6997C180.2 30.9997 179.7 32.5997 178.2 34.0997C174.7 37.4997 172 38.8997 171.1 36.1997C170.4 34.2997 170.8 32.0997 171 30.7997C170.4 30.9997 169.7 31.1997 168.9 31.2997H168.6C167.1 31.4997 165.3 31.6997 164.1 34.7997C163.8 35.6997 163.3 36.8997 162.8 38.3997C161.5 42.0997 159.9 46.5997 158.8 48.1997C157.5 49.8997 156.7 52.4997 155.9 54.7997C155.7 55.5997 155.4 56.2997 155.2 56.8997C154.7 58.1997 154.2 59.2997 153.6 60.1997C154.4 60.2997 155.1 60.4997 155.6 60.6997C155.9 60.7997 156.2 61.0997 156.5 61.2997C156.8 60.5997 157.3 59.5997 158.3 58.3997C161.2 54.7997 162.8 52.2997 163.3 50.9997C163.8 49.2997 164.2 48.3997 165 47.1997C165.5 46.3997 166 45.6997 166.2 45.1997C166.5 45.6997 166.8 46.0997 166.9 46.1997C166.9 46.5997 167 48.5997 166.9 50.5997C166.5 55.3997 165.6 57.8997 164.9 59.8997C164.7 60.5997 164.4 61.1997 164.3 61.8997C163.7 64.0997 163 67.4997 162.8 69.9997C162.5 73.2997 163.2 83.6997 163.9 87.9997C164.1 88.8997 164.1 89.9997 164.2 90.9997C164.3 92.3997 164.4 93.7997 164.6 94.8997C164.7 95.2997 164.8 96.2997 164.8 97.9997C164.8 98.0997 164.9 98.1997 165.1 98.1997C165.4 98.9997 167 101.9 168.2 104.7C169 106.7 169.7 109.2 170.1 110C170.3 110.3 170.4 110.3 170.5 109.9C170.6 109.4 170.7 108.9 170.9 108.4C171.2 107.1 171.6 105.7 171.9 104.2C172.8 98.6997 172.5 96.1997 172 92.9997C171.6 90.5997 172 88.4997 172.8 84.4997C173.5 80.4997 174.1 72.6997 174.2 71.5997Z" fill="#5749AB"/>
<path d="M181.8 18.0998C181.8 18.0998 184 17.7998 184.8 19.1998C185.5 20.4998 184.6 21.9998 184.3 23.2998C184.1 24.3998 186 25.0998 185.6 25.3998C185.2 25.7998 183.1 26.2998 181.7 25.6998C179.3 24.6998 179.3 22.3998 179.3 22.3998" stroke="#0A044A" stroke-width="2" stroke-miterlimit="10" stroke-linecap="round" stroke-linejoin="round"/>
<path d="M175.1 25.8999C173.6 27.1999 172.6 27.7999 171.2 27.9999C169.9 28.1999 169.6 27.5999 168.9 26.0999C168.2 24.5999 167 23.0999 167 22.2999C167 20.8999 167.1 18.9999 167.1 18.9999C166.2 18.7999 165.9 17.1999 166.3 15.9999C166.6 14.9999 167.6 14.8999 168.4 15.0999C169 15.1999 169.5 15.9999 169.5 15.9999C169.5 15.9999 171.2 14.5999 172.8 15.1999C174 15.6999 174.3 16.8999 174.8 18.2999C175.3 19.6999 176.2 21.3999 177.4 22.0999C178.6 22.7999 179.9 22.1999 180.4 21.7999C181.2 21.1999 181.9 20.1999 181.7 19.0999C181.6 17.8999 181.9 15.1999 180.2 13.0999C178.5 10.9999 176.7 10.5999 174.7 11.5999C174.7 11.5999 172.6 10.8999 171.3 11.0999C169.3 11.5999 166.7 14.0999 166.3 15.7999" stroke="#0A044A" stroke-width="2" stroke-miterlimit="10" stroke-linecap="round" stroke-linejoin="round"/>
<path d="M200.899 71.2999C200.699 69.7999 199.299 68.3999 199.299 67.1999C199.299 65.9999 199.299 64.9999 197.799 63.0999C196.299 61.1999 192.899 56.5999 192.299 55.5999C191.799 54.6999 190.799 51.8999 190.499 51.1999C190.199 50.4999 188.599 47.9999 187.899 46.6999C187.099 45.3999 185.299 42.6999 184.699 41.9999C184.099 41.2999 183.099 40.5999 182.699 40.3999" stroke="#0A044A" stroke-width="2" stroke-miterlimit="10" stroke-linecap="round" stroke-linejoin="round"/>
<path d="M178.1 22.5C177.8 23.1 177.8 23.9 177.8 25.6C177.8 27.8 179.7 29.4 180.8 30C184 31.8 186.9 31.5 188.6 34.7C190.3 37.9 192.9 45.8 194 47.7C195.1 49.5 196.2 50.2 197.4 53C198.6 55.8 199.9 60.1 200.8 61.8C201.7 63.5 202.8 64.7 204.2 65.4C205.6 66.1 207.6 67.3 207.8 68.2C208 69.1 208.1 69.8 208.2 70.2C208.3 70.6 208.1 71 207.2 71C206.3 71 204.4 70 202.3 68.8" stroke="#0A044A" stroke-width="2" stroke-miterlimit="10" stroke-linecap="round" stroke-linejoin="round"/>
<path d="M167.2 37C167.2 37 166.5 38.4 165.9 39.3C165.2 40.2 164.8 41.7 165.5 43.3C165.9 44.1 167.1 45.9 167.1 45.9C167.1 45.9 167.3 48.1 167.1 50.5C166.5 56.9 165.1 59.3 164.5 61.8C163.9 64.1 163.2 67.4 163 69.8C162.7 73.2 163.4 83.6 164.1 87.7C164.5 89.8 164.3 92.7 164.8 94.6C164.9 95.1 165 96.2 165 97.7" stroke="#0A044A" stroke-width="2" stroke-miterlimit="10" stroke-linecap="round" stroke-linejoin="round"/>
<path d="M184.6 41.8999C184.2 44.9999 183.6 46.6999 183.2 48.5999C182.9 49.9999 181.7 53.1999 182 56.5999C182.2 58.9999 184.2 60.7999 185.1 64.0999C185.6 65.8999 186.9 67.9999 187.2 71.4999C187.2 72.0999 187.1 76.5999 187.1 77.6999C187.1 77.6999 186.9 86.6999 188 89.9999C189.2 93.2999 191.3 94.0999 190.8 101.3C190.5 104.7 189.8 110.6 189.8 113.1C189.8 114.7 190.7 116 190.2 117.1C189.3 118.9 186.9 118.3 183 119.3C180.3 120 177.4 119.2 177.5 119C178.4 116.9 185.3 113.7 185.3 113.7C185.3 113.7 185.6 112 185.3 109.1C184.7 102.6 183.3 97.2999 182.4 94.0999C182.1 92.9999 180.7 90.2999 180.3 88.7999C178.7 83.6999 176.6 78.3999 175.6 74.1999C175.2 72.1999 173.7 70.3999 172.5 69.9999" stroke="#0A044A" stroke-width="2" stroke-miterlimit="10" stroke-linecap="round" stroke-linejoin="round"/>
<path d="M154.1 68.4C154.1 67.6 154.3 66.5 154.5 66.2C155 65.3 155.9 64.5 155.9 63.2C155.9 61.9 156 60.7 158.1 58.1C160.2 55.5 162.5 52.4 163 50.8C163.5 49.1 163.9 48.2 164.7 46.9C165.5 45.6 166.2 44.5 166.2 44.5" stroke="#0A044A" stroke-width="2" stroke-miterlimit="10" stroke-linecap="round" stroke-linejoin="round"/>
<path d="M173.7 27.3999C173.7 27.3999 174.2 30.4999 168.9 31.2999C167.4 31.4999 165.5 31.5999 164.3 34.5999C163.1 37.6999 160.6 45.7999 159 47.9999C157.3 50.1999 156.4 54.0999 155.4 56.6999C154.5 59.1999 153.4 61.0999 151.5 62.4999C150 63.4999 148.3 64.0999 147.5 65.5999C146.9 66.7999 146.9 67.6999 146.8 68.1999C146.7 68.6999 147.4 69.1999 148 68.9999C148.4 68.8999 149.6 67.5999 150.3 66.8999C151 66.1999 151.7 66.0999 152.1 66.0999" stroke="#0A044A" stroke-width="2" stroke-miterlimit="10" stroke-linecap="round" stroke-linejoin="round"/>
<path d="M174 71.5C174 71.5 173.3 80.1 172.5 84.3C171.7 88.5 171.3 90.5 171.7 92.9C172.2 96 172.5 98.5 171.6 104C171.2 106.1 170.6 108.2 170.3 109.7" stroke="#0A044A" stroke-width="2" stroke-miterlimit="10" stroke-linecap="round" stroke-linejoin="round"/>
<path d="M166.1 56C166.1 56 167.8 57.5 171.4 57.7C178.4 58.1 181.7 56.6 181.7 56.6" stroke="#0A044A" stroke-width="2" stroke-miterlimit="10" stroke-linecap="round" stroke-linejoin="round"/>
<path d="M190.4 107.7C198.7 109.4 204 112.2 204 115.4C204 120.6 189.7 124.8 172 124.8C171.5 124.8 171 124.8 170.5 124.8" stroke="#0A044A" stroke-width="2" stroke-miterlimit="10" stroke-linecap="round" stroke-linejoin="round"/>
<path d="M172.1 106C176.7 106 181.1 106.3 185.1 106.8" stroke="#0A044A" stroke-width="2" stroke-miterlimit="10" stroke-linecap="round" stroke-linejoin="round"/>
<path d="M190.599 114.5C190.599 114.5 189.099 113.8 187.899 113.6C186.499 113.4 185.199 113.5 185.199 113.5" stroke="#0A044A" stroke-width="2" stroke-miterlimit="10" stroke-linecap="round" stroke-linejoin="round"/>
<path d="M153.5 59.7998C154 59.9998 154.7 60.1998 155.1 60.3998C156.4 60.9998 156.5 61.0998 156.5 61.0998" stroke="#0A044A" stroke-width="2" stroke-miterlimit="10" stroke-linecap="round" stroke-linejoin="round"/>
<path d="M198.399 65.1001C198.399 65.1001 198.899 64.4001 200.499 63.6001C202.099 62.8001 202.099 63.2001 202.099 63.2001" stroke="#0A044A" stroke-width="2" stroke-miterlimit="10" stroke-linecap="round" stroke-linejoin="round"/>
<path d="M133 81H39.8001C18.5001 81 0.600072 98.4 1.10007 119.7C1.50007 140.3 18.4001 157 39.1001 157C52.5001 157 64.3001 150.1 71.0001 139.6C73.3001 136.1 77.3001 134 81.5001 134H90.7001C95.0001 134 98.9001 136.2 101.3 139.7C108.4 150.6 121.1 157.7 135.3 156.9C154.8 155.8 170.6 139.7 171.1 120.1C171.6 98.6 154.4 81 133 81Z" stroke="#0A044A" stroke-width="2" stroke-miterlimit="10" stroke-linecap="round" stroke-linejoin="round"/>
<path d="M70 81V73.9C70 70.6 72.6 68 75.9 68H96.1C99.4 68 102 70.6 102 73.9V81" stroke="#0A044A" stroke-width="2" stroke-miterlimit="10" stroke-linecap="round" stroke-linejoin="round"/>
<path d="M70 90H102" stroke="#0A044A" stroke-width="2" stroke-miterlimit="10" stroke-linecap="round" stroke-linejoin="round"/>
<path d="M70 94H102" stroke="#0A044A" stroke-width="2" stroke-miterlimit="10" stroke-linecap="round" stroke-linejoin="round"/>
<path d="M39 147C54.464 147 67 134.464 67 119C67 103.536 54.464 91 39 91C23.536 91 11 103.536 11 119C11 134.464 23.536 147 39 147Z" fill="#5749AB"/>
<path d="M46 142.5C43.8 143.2 41.4 143.5 39 143.5" stroke="#0A044A" stroke-width="2" stroke-miterlimit="10" stroke-linecap="round" stroke-linejoin="round"/>
<path d="M63.4996 119C63.4996 127.9 58.6996 135.7 51.5996 140" stroke="#0A044A" stroke-width="2" stroke-miterlimit="10" stroke-linecap="round" stroke-linejoin="round"/>
<path d="M33 105.6L39 99.1001L45 105.6" stroke="white" stroke-width="2" stroke-miterlimit="10" stroke-linecap="round" stroke-linejoin="round"/>
<path d="M45 132.4L39 138.9L33 132.4" stroke="white" stroke-width="2" stroke-miterlimit="10" stroke-linecap="round" stroke-linejoin="round"/>
<path d="M52.4004 113L58.9004 119L52.4004 125" stroke="white" stroke-width="2" stroke-miterlimit="10" stroke-linecap="round" stroke-linejoin="round"/>
<path d="M25.5996 125L19.0996 119L25.5996 113" stroke="white" stroke-width="2" stroke-miterlimit="10" stroke-linecap="round" stroke-linejoin="round"/>
<path d="M122 117C126.971 117 131 112.971 131 108C131 103.029 126.971 99 122 99C117.029 99 113 103.029 113 108C113 112.971 117.029 117 122 117Z" stroke="#0A044A" stroke-width="2" stroke-miterlimit="10" stroke-linecap="round" stroke-linejoin="round"/>
<path d="M144 117C148.971 117 153 112.971 153 108C153 103.029 148.971 99 144 99C139.029 99 135 103.029 135 108C135 112.971 139.029 117 144 117Z" stroke="#0A044A" stroke-width="2" stroke-miterlimit="10" stroke-linecap="round" stroke-linejoin="round"/>
<path d="M122 139C126.971 139 131 134.971 131 130C131 125.029 126.971 121 122 121C117.029 121 113 125.029 113 130C113 134.971 117.029 139 122 139Z" stroke="#0A044A" stroke-width="2" stroke-miterlimit="10" stroke-linecap="round" stroke-linejoin="round"/>
<path d="M144 140C149.523 140 154 135.523 154 130C154 124.477 149.523 120 144 120C138.477 120 134 124.477 134 130C134 135.523 138.477 140 144 140Z" fill="#5749AB"/>
</svg>
