<svg width="216" height="216" viewBox="0 0 216 216" fill="none" xmlns="http://www.w3.org/2000/svg">
<path d="M215.7 67.1002C198.4 56.3002 162.7 48.5002 120.7 47.2002C120.3 48.3002 119.8 49.1002 119 50.1002V57.0002C119 59.4002 120.9 62.0002 125.4 64.0002C130 66.0002 135.6 67.4002 140.1 68.0002C146.4 68.8002 152.4 72.5002 155.3 79.6002C157.1 84.0002 157.6 87.0002 158 89.2002C158.3 91.0002 159 92.3002 159.7 93.5002C161.6 96.6002 166.3 105.6 167.8 109.7C168.8 112.3 169.4 115.1 170 117.8C170.8 121.3 171.1 124.5 172.4 126.5C172.8 127.2 173.4 127.9 174 128.7C176.9 132.5 181.7 138.2 184 148.8C187.1 163 190.9 171.5 190.9 171.6C191.1 172 191.5 172.7 191.9 173.5C193.9 177.1 195.9 180.8 196 183C196.1 185.5 195.3 192.3 195 194.6L194.9 195.2C194.7 197 188.6 201.6 188 201.9C187.8 202 187.5 202.1 187.3 202.1C187 202.1 186.7 202 186.4 201.8C185.2 201 184.5 198.5 184.5 197C184.5 196.8 184.5 196.5 184.5 196.2C184.5 194.3 184.6 191.5 183.7 189.4C183.6 190.3 183.4 191.1 183.2 191.7L183.4 192.4C183.6 192.9 183.3 193.5 182.8 193.7C182.7 193.7 182.6 193.8 182.5 193.8C182.1 193.8 181.7 193.5 181.6 193.1L180.5 187.1C178.8 184.8 179.1 179.6 179.4 178.1C179.8 175.9 180.3 172.2 180 171.1L179.9 170.7C179.5 168.8 178.1 166.7 171.3 156.5L169.3 153.5C163.2 144.5 161.2 141.5 160.2 137.1C159.1 132.6 157.1 129.8 155.1 127C154.5 126.1 153.9 125.3 153.3 124.4L153 123.9C150.5 120 146.8 114.2 145.2 109.1C144.8 107.9 143.5 106 143.1 105C142.9 106.4 142.6 110 142.3 111.7C142 114 141.7 116.6 141.4 118.9C140.8 124.5 139.3 128.2 138.3 130.6L138 131.3C137.1 133.6 134.6 142.4 135.1 149.4C135.4 154.2 136.2 156.7 136.8 158.8C137.1 159.7 137.3 160.6 137.5 161.5C137.8 162.9 137.8 164.4 137.9 165.8C138 167.2 138 168.5 138.3 169.3C138.4 169.8 138.7 170.7 139.1 171.8C140.2 174.9 141.8 179.7 142 181.8L142.1 182.7C142.5 187.3 143.8 201.2 144 206C144.1 207.2 144.1 208.2 144.1 209V214.3C175.8 211.3 201.8 204.6 215.8 195.8C206.3 182 200.1 158.3 200.1 131.4C200.1 104.5 206.2 81.0002 215.7 67.1002Z" fill="#5749AB"/>
<path d="M71.9998 214.2V209C71.9998 208.1 71.9998 207.1 72.0998 206C72.2998 201.1 73.5998 187.3 73.9998 182.7L74.0998 181.8C74.2998 179.7 75.8998 174.9 76.9998 171.8C77.3998 170.7 77.6998 169.8 77.7998 169.3C77.9998 168.5 78.0998 167.2 78.1998 165.8C78.2998 164.5 78.3998 162.9 78.5998 161.5C78.7998 160.6 78.9998 159.8 79.2998 158.8C79.8998 156.7 80.5998 154.2 80.9998 149.4C81.4998 142.4 78.9998 133.6 78.0998 131.3L77.7998 130.6C76.7998 128.2 75.2998 124.5 74.6998 118.9C74.3998 116.5 74.0998 112.3 73.7998 110C73.5998 108.3 73.3998 105.4 73.1998 104C72.7998 105 70.3998 107.4 69.9998 108.6C68.2998 113.7 64.6998 120.1 62.1998 124L61.8998 124.5C61.2998 125.4 60.6998 126.2 60.0998 127.1C58.0998 129.8 56.1998 133.7 55.0998 138.3C54.0998 142.5 51.8998 144.9 44.8998 155.3L43.3998 157.6C36.4998 167.9 36.8998 170 36.4998 171.8L36.3998 172.2C36.0998 173.4 36.0998 175.8 36.4998 178C36.6998 179.4 36.9998 180.8 36.9998 181.9C36.9998 182.3 37.0998 182.7 37.0998 182.9C37.1998 183.9 37.1998 184.1 36.7998 185C36.5998 185.4 36.3998 185.1 35.9998 186.3L34.8998 192.3C34.7998 192.7 34.3998 193 33.9998 193C33.8998 193 33.7998 193 33.6998 192.9C33.1998 192.7 32.8998 192.2 33.0998 191.6L33.2998 190.9C33.0998 190.3 32.1998 188.8 31.9998 187.9C31.0998 190 30.9998 193.1 30.9998 195.1C30.9998 195.4 30.9998 195.7 30.9998 195.9C30.9998 197.4 31.2998 200.9 30.0998 201.7C29.7998 201.9 29.4998 202 29.1998 202C28.9998 202 28.6998 201.9 28.4998 201.8C27.8998 201.5 21.1998 196.9 20.8998 195.1L20.7998 194.5C20.4998 192.3 19.6998 185.5 19.8998 182.9C19.9998 180.8 22.8998 175.6 24.8998 171.9C25.3998 171.1 25.7998 170.4 25.8998 170C25.8998 169.9 28.6998 162.9 31.7998 148.7C34.0998 138.1 38.3998 132.4 41.2998 128.6C41.8998 127.7 42.4998 127 42.8998 126.4C44.1998 124.5 44.9998 121.2 45.6998 117.7C46.2998 115 46.8998 112.1 47.8998 109.6C49.3998 105.5 53.9998 96.5002 55.8998 93.4002C56.6998 92.2002 56.8998 90.9002 57.1998 89.1002C57.5998 86.9002 58.0998 83.9002 59.8998 79.5002C62.7998 72.4002 67.4998 68.7002 73.7998 67.9002C78.3998 67.3002 84.8998 65.9002 89.4998 63.9002C93.9998 61.9002 96.8998 60.2002 96.8998 57.8002V50.0002C96.0998 49.1002 95.5998 48.2002 95.1998 47.2002C53.5998 48.6002 17.4998 56.4002 0.299805 67.1002C9.7998 80.9002 15.9998 104.6 15.9998 131.5C15.9998 158.4 9.7998 182 0.299805 195.9C14.2998 204.5 40.7998 211.2 71.9998 214.2Z" fill="#5749AB"/>
<path d="M171 180H153C151.3 180 150 178.7 150 177C150 175.3 151.3 174 153 174H171C172.7 174 174 175.3 174 177C174 178.7 172.7 180 171 180Z" fill="white"/>
<path d="M171 189H153C151.3 189 150 187.7 150 186C150 184.3 151.3 183 153 183H171C172.7 183 174 184.3 174 186C174 187.7 172.7 189 171 189Z" fill="white"/>
<path d="M171 198H153C151.3 198 150 196.7 150 195C150 193.3 151.3 192 153 192H171C172.7 192 174 193.3 174 195C174 196.7 172.7 198 171 198Z" fill="white"/>
<path d="M51 75H31C29.3 75 28 73.7 28 72C28 70.3 29.3 69 31 69H51C52.7 69 54 70.3 54 72C54 73.7 52.7 75 51 75Z" fill="white"/>
<path d="M67 173H47C45.3 173 44 171.7 44 170C44 168.3 45.3 167 47 167H67C68.7 167 70 168.3 70 170C70 171.7 68.7 173 67 173Z" fill="white"/>
<path d="M51 84H40C38.3 84 37 82.7 37 81C37 79.3 38.3 78 40 78H51C52.7 78 54 79.3 54 81C54 82.7 52.7 84 51 84Z" fill="white"/>
<path d="M199 75H188C186.3 75 185 73.7 185 72C185 70.3 186.3 69 188 69H199C200.7 69 202 70.3 202 72C202 73.7 200.7 75 199 75Z" fill="white"/>
<path d="M199 84H188C186.3 84 185 82.7 185 81C185 79.3 186.3 78 188 78H199C200.7 78 202 79.3 202 81C202 82.7 200.7 84 199 84Z" fill="white"/>
<path d="M20 76C22.2091 76 24 74.2091 24 72C24 69.7909 22.2091 68 20 68C17.7909 68 16 69.7909 16 72C16 74.2091 17.7909 76 20 76Z" stroke="white" stroke-width="2" stroke-miterlimit="10" stroke-linecap="round" stroke-linejoin="round"/>
<path d="M177 85C179.209 85 181 83.2091 181 81C181 78.7909 179.209 77 177 77C174.791 77 173 78.7909 173 81C173 83.2091 174.791 85 177 85Z" stroke="white" stroke-width="2" stroke-miterlimit="10" stroke-linecap="round" stroke-linejoin="round"/>
<path d="M29 79V105H43" stroke="white" stroke-width="2" stroke-miterlimit="10" stroke-linecap="round" stroke-linejoin="round"/>
<path d="M43 107C44.1046 107 45 106.105 45 105C45 103.895 44.1046 103 43 103C41.8954 103 41 103.895 41 105C41 106.105 41.8954 107 43 107Z" fill="white"/>
<path d="M37 120C38.1046 120 39 119.105 39 118C39 116.895 38.1046 116 37 116C35.8954 116 35 116.895 35 118C35 119.105 35.8954 120 37 120Z" fill="white"/>
<path d="M30 120C31.1046 120 32 119.105 32 118C32 116.895 31.1046 116 30 116C28.8954 116 28 116.895 28 118C28 119.105 28.8954 120 30 120Z" fill="white"/>
<path d="M23 120C24.1046 120 25 119.105 25 118C25 116.895 24.1046 116 23 116C21.8954 116 21 116.895 21 118C21 119.105 21.8954 120 23 120Z" fill="white"/>
<path d="M193 120C194.105 120 195 119.105 195 118C195 116.895 194.105 116 193 116C191.895 116 191 116.895 191 118C191 119.105 191.895 120 193 120Z" fill="white"/>
<path d="M186 120C187.105 120 188 119.105 188 118C188 116.895 187.105 116 186 116C184.895 116 184 116.895 184 118C184 119.105 184.895 120 186 120Z" fill="white"/>
<path d="M179 120C180.105 120 181 119.105 181 118C181 116.895 180.105 116 179 116C177.895 116 177 116.895 177 118C177 119.105 177.895 120 179 120Z" fill="white"/>
<path d="M181 72H160" stroke="white" stroke-width="2" stroke-miterlimit="10" stroke-linecap="round" stroke-linejoin="round"/>
<path d="M160 74C161.105 74 162 73.1046 162 72C162 70.8954 161.105 70 160 70C158.895 70 158 70.8954 158 72C158 73.1046 158.895 74 160 74Z" fill="white"/>
<path d="M158 170V152H143" stroke="white" stroke-width="2" stroke-miterlimit="10" stroke-linecap="round" stroke-linejoin="round"/>
<path d="M143 154C144.105 154 145 153.105 145 152C145 150.895 144.105 150 143 150C141.895 150 141 150.895 141 152C141 153.105 141.895 154 143 154Z" fill="white"/>
<path d="M52 177V196H66" stroke="white" stroke-width="2" stroke-miterlimit="10" stroke-linecap="round" stroke-linejoin="round"/>
<path d="M66 198C67.1046 198 68 197.105 68 196C68 194.895 67.1046 194 66 194C64.8954 194 64 194.895 64 196C64 197.105 64.8954 198 66 198Z" fill="white"/>
<path d="M66 163C68.2091 163 70 161.209 70 159C70 156.791 68.2091 155 66 155C63.7909 155 62 156.791 62 159C62 161.209 63.7909 163 66 163Z" stroke="white" stroke-width="2" stroke-miterlimit="10" stroke-linecap="round" stroke-linejoin="round"/>
<path d="M104.4 12.3002C104.4 12.3002 103.8 16.1002 98.6995 19.9002C95.2995 22.4002 94.3995 24.2002 93.4995 26.7002C92.5995 29.2002 92.5995 31.2002 92.5995 31.2002C92.5995 31.2002 90.7995 27.6002 89.5995 25.2002C87.5995 21.0002 87.2995 16.7002 88.8995 13.3002C90.0995 10.6002 92.0995 9.80021 93.4995 7.70021C97.3995 1.80021 110.3 -0.099785 116 2.00021C119.3 3.20021 120.3 7.10021 120.3 7.10021C120.3 7.10021 127 7.60021 127.8 15.0002C128.5 20.6002 127.5 23.3002 126.6 25.8002C125.7 28.3002 123 31.1002 123 31.1002C123 31.1002 123.3 24.6002 122.3 22.5002C121.3 20.4002 120.2 17.4002 117.8 16.0002C116 15.0002 114 11.7002 114 11.7002C114 11.7002 113 14.8002 111.5 17.0002C110.1 19.2002 108 20.8002 108 20.8002" stroke="#0A044A" stroke-width="2" stroke-miterlimit="10" stroke-linecap="round" stroke-linejoin="round"/>
<path d="M109.2 11.5C109.2 11.5 108.2 14.6 106.7 16.8C105.3 19 103.2 20.6 103.2 20.6" stroke="#0A044A" stroke-width="2" stroke-miterlimit="10" stroke-linecap="round" stroke-linejoin="round"/>
<path d="M90.9996 28.5C89.0996 29.5 90.3996 37.6 91.9996 39.5C93.2996 41 94.1996 40.8 94.1996 40.8C94.1996 40.8 94.3996 43.7 94.9996 46C95.5996 48.4 96.4996 49.3 99.6996 52.3C102 54.7 105 57 108 57C111 57 114 54.7 116.3 52.4C119.5 49.3 120.3 48.4 121 46.1C121.6 43.8 121.8 40.9 121.8 40.9C121.8 40.9 122.7 41.1 124 39.6C125.6 37.7 126.9 29.6 125 28.6" stroke="#0A044A" stroke-width="2" stroke-miterlimit="10" stroke-linecap="round" stroke-linejoin="round"/>
<path d="M96.9995 29C96.9995 29 98.1995 28 98.9995 28C102 28 106 28.5 106 31.8C106 35.1 106 40 106 40C106 40 106.6 41 108 41C109.4 41 110 40 110 40" stroke="#0A044A" stroke-width="2" stroke-miterlimit="10" stroke-linecap="round" stroke-linejoin="round"/>
<path d="M119 29C119 29 117.8 28 117 28C115.6 28 113.1 28.7 112 29" stroke="#0A044A" stroke-width="2" stroke-miterlimit="10" stroke-linecap="round" stroke-linejoin="round"/>
<path d="M103 196C103 196 104.1 197 108 197C111.9 197 113 196 113 196" stroke="#0A044A" stroke-width="2" stroke-miterlimit="10" stroke-linecap="round" stroke-linejoin="round"/>
<path d="M119 50C119 50 119 54 119 57C119 60 121.4 62 126 64C130.6 66 137.1 67.4 142 68C146.9 68.6 152.8 72.1 156 80C159.2 87.9 158.1 91 160 94C161.9 97 166.5 105.9 168 110C170.2 115.8 170.6 123.4 173 127C175.4 130.6 181.3 136.3 184 149C186.7 161.7 190.3 170.4 191 172C191.7 173.6 195.9 180.3 196 183C196.1 185.7 195.1 193.9 195 195C194.9 196.1 188 201.5 187 202C186 202.5 185 199.7 185 198C185 196.3 185.3 191.6 184 189C182.7 186.4 183 186 183 186" stroke="#0A044A" stroke-width="2" stroke-miterlimit="10" stroke-linecap="round" stroke-linejoin="round"/>
<path d="M146 95C146 95 144 97.5 143 101C142 104.5 140.7 111.8 133 113C125.3 114.2 124 114 124 114" stroke="#0A044A" stroke-width="2" stroke-miterlimit="10" stroke-linecap="round" stroke-linejoin="round"/>
<path d="M143 103C143.9 104.5 145 106.9 146 110C147.7 115.2 151.7 121.3 154 125C156.3 128.7 159.5 131.8 161 138C162.1 142.6 164.5 145.8 172 157C179.5 168.2 179.5 169.8 180 172C180.5 174.2 179.2 179.2 179 182C178.8 184.8 178.7 183 180 187C181.3 191 182 193 182 193" stroke="#0A044A" stroke-width="2" stroke-miterlimit="10" stroke-linecap="round" stroke-linejoin="round"/>
<path d="M143.099 103.3C143.099 105.5 141.999 112.6 141.299 118.8C140.599 124.8 138.999 128.5 137.999 131C136.999 133.5 134.599 142.5 135.099 149.5C135.599 156.5 136.999 158.9 137.499 161.7C137.999 164.5 137.799 167.8 138.299 169.5C138.799 171.2 141.699 179.1 141.999 181.8C142.299 184.5 143.799 200.7 143.999 206C144.199 211.3 143.999 213 143.999 213" stroke="#0A044A" stroke-width="2" stroke-miterlimit="10" stroke-linecap="round" stroke-linejoin="round"/>
<path d="M96.9997 50C96.9997 50 96.9997 54 96.9997 57C96.9997 60 94.5997 62 89.9997 64C85.3997 66 78.8997 67.4 73.9997 68C69.0997 68.6 63.1997 72.1 59.9997 80C56.7997 87.9 57.8997 91 55.9997 94C54.0997 97 49.4997 105.9 47.9997 110C45.7997 115.8 45.3997 123.4 42.9997 127C40.5997 130.6 34.6997 136.3 31.9997 149C29.2997 161.7 25.6997 170.4 24.9997 172C24.2997 173.6 20.0997 180.3 19.9997 183C19.8997 185.7 20.8997 193.9 20.9997 195C21.0997 196.1 27.9997 201.5 28.9997 202C29.9997 202.5 30.9997 199.7 30.9997 198C30.9997 196.3 30.6997 191.6 31.9997 189C33.2997 186.4 32.9997 186 32.9997 186" stroke="#0A044A" stroke-width="2" stroke-miterlimit="10" stroke-linecap="round" stroke-linejoin="round"/>
<path d="M69.9995 95C69.9995 95 71.9995 97.5 72.9995 101C73.9995 104.5 75.2995 111.8 82.9995 113C90.6995 114.2 91.9995 114 91.9995 114" stroke="#0A044A" stroke-width="2" stroke-miterlimit="10" stroke-linecap="round" stroke-linejoin="round"/>
<path d="M108 215V197" stroke="#0A044A" stroke-width="2" stroke-miterlimit="10" stroke-linecap="round" stroke-linejoin="round"/>
<path d="M73.1995 102.6C72.2995 104.1 71.0995 106.6 69.9995 110C68.2995 115.2 64.2995 121.3 61.9995 125C59.6995 128.7 56.4995 131.8 54.9995 138C53.8995 142.4 51.8995 145.3 43.9995 157C36.4995 168.2 36.4995 169.8 35.9995 172C35.4995 174.2 36.7995 179.2 36.9995 182C37.1995 184.8 37.2995 183 35.9995 187C34.6995 191 33.9995 193 33.9995 193" stroke="#0A044A" stroke-width="2" stroke-miterlimit="10" stroke-linecap="round" stroke-linejoin="round"/>
<path d="M72.8995 103.3C72.8995 105.5 73.9995 112.6 74.6995 118.8C75.3995 124.8 76.9995 128.5 77.9995 131C78.9995 133.5 81.3995 142.5 80.8995 149.5C80.3995 156.5 78.9995 158.9 78.4995 161.7C77.9995 164.5 78.1995 167.8 77.6995 169.5C77.1995 171.2 74.2995 179.1 73.9995 181.8C73.6995 184.5 72.1995 200.7 71.9995 206C71.7995 211.3 71.9995 213 71.9995 213" stroke="#0A044A" stroke-width="2" stroke-miterlimit="10" stroke-linecap="round" stroke-linejoin="round"/>
</svg>
