<svg width="217" height="162" viewBox="0 0 217 162" fill="none" xmlns="http://www.w3.org/2000/svg">
<path d="M142.2 57.2002C153.7 59.0002 164.3 61.7002 173.7 65.1002" stroke="#0A044A" stroke-width="2" stroke-miterlimit="10" stroke-linecap="round" stroke-linejoin="round"/>
<path d="M43.2998 65.1998C52.6998 61.7998 63.2998 59.0998 74.6998 57.2998" stroke="#0A044A" stroke-width="2" stroke-miterlimit="10" stroke-linecap="round" stroke-linejoin="round"/>
<path d="M139 42C139 42 139.2 30.5 138 22C136.8 13.5 128.5 1 108.5 1C88.4999 1 80.0999 13.5 78.9999 22C77.7999 30.5 77.9999 42 77.9999 42C77.9999 42 70.8999 40.2 73.5999 52.5C76.2999 64.8 78.4999 65.8 79.9999 67C81.4999 68.2 82.9999 68 82.9999 68C82.9999 68 82.9999 71.2 82.9999 75C82.9999 82.7 92.9999 94 108.5 94C123.9 94 134 82.7 134 75C134 71.2 134 68 134 68C134 68 135.5 68.2 137 67C138.5 65.8 140.7 64.8 143.4 52.5C146 40.2 139 42 139 42Z" stroke="#0A044A" stroke-width="2" stroke-miterlimit="10" stroke-linecap="round" stroke-linejoin="round"/>
<path d="M132.3 9.7998C180.2 12.9998 216 25.4998 216 40.4998" stroke="#0A044A" stroke-width="2" stroke-miterlimit="10" stroke-linecap="round" stroke-linejoin="round"/>
<path d="M1 40.4998C1 25.4998 36.8 12.9998 84.6 9.7998" stroke="#0A044A" stroke-width="2" stroke-miterlimit="10" stroke-linecap="round" stroke-linejoin="round"/>
<path d="M40 56.8999C45.8 54.5999 52.2 52.5999 59 50.8999" stroke="#0A044A" stroke-width="2" stroke-miterlimit="10" stroke-linecap="round" stroke-linejoin="round"/>
<path d="M40 24.4002C45.8 23.0002 52.2 21.7002 59 20.7002" stroke="#0A044A" stroke-width="2" stroke-miterlimit="10" stroke-linecap="round" stroke-linejoin="round"/>
<path d="M40 29.7C45.8 28.3 52.2 27 59 26" stroke="#0A044A" stroke-width="2" stroke-miterlimit="10" stroke-linecap="round" stroke-linejoin="round"/>
<path d="M40 34.9998C45.8 33.5998 52.2 32.2998 59 31.2998" stroke="#0A044A" stroke-width="2" stroke-miterlimit="10" stroke-linecap="round" stroke-linejoin="round"/>
<path d="M89 87C89 87 89 92.3 89 98C89 106.3 81.5 110.3 74.5 113C71.9 114 69.7 114.7 68 115.1" stroke="#0A044A" stroke-width="2" stroke-miterlimit="10" stroke-linecap="round" stroke-linejoin="round"/>
<path d="M128 87C128 87 128 92.3 128 98C128 106.3 135.5 110.3 142.5 113C145.1 114 147.3 114.7 149 115.1" stroke="#0A044A" stroke-width="2" stroke-miterlimit="10" stroke-linecap="round" stroke-linejoin="round"/>
<path d="M111.1 21C110.7 21 106.1 21 105.7 21C84.8 21.8 68 28.5 68 44C68 60.5 77.9 63 85.9 63C96.7 63 101 50 108.5 50C116.1 50 120.2 63 131.1 63C139.1 63 149.1 60.5 149.1 44C149 28.5 132 21.8 111.1 21Z" fill="#5749AB"/>
<path d="M74.8999 39C76.7999 34.3 81.5999 31.3 86.9999 29.5M92.4999 28.1C95.0999 27.6 97.5999 27.2 99.8999 27L92.4999 28.1Z" stroke="white" stroke-width="2" stroke-miterlimit="10" stroke-linecap="round" stroke-linejoin="round"/>
<path d="M186.9 128C185.9 127.2 184.6 126.4 183.2 125.5C173.4 128.3 161.9 130.5 149.1 132V112.8C147.3 112.3 146.2 112 146.2 112C146.2 112 143.5 118.7 138.2 125C132.9 131.3 122.1 141 109.1 141C96.1002 141 84.5002 131.3 79.2002 125C73.9002 118.7 71.2002 112 71.2002 112C71.2002 112 70.0002 112.3 68.1002 112.9V132.1C55.3002 130.6 43.7002 128.3 34.0002 125.6C32.5002 126.4 31.2002 127.3 30.2002 128.1C21.2002 135.4 19.2002 147.1 19.2002 147.1C19.2002 147.1 51.2002 161.1 107.2 161.1C107.7 161.1 108.1 161.1 108.6 161.1C109.1 161.1 109.5 161.1 110 161.1C166 161.1 198 147.1 198 147.1C198 147.1 195.9 135.3 186.9 128Z" fill="#5749AB"/>
<path d="M216 102.9C216 116.1 188.3 127.4 149 132.1V69.8001C188.3 65.1001 216 53.8001 216 40.6001V102.9Z" stroke="#0A044A" stroke-width="2" stroke-miterlimit="10" stroke-linecap="round" stroke-linejoin="round"/>
<path d="M1 102.9C1 116.1 28.7 127.4 68 132.1V69.8001C28.7 65.1001 1 53.8001 1 40.6001V102.9Z" stroke="#0A044A" stroke-width="2" stroke-miterlimit="10" stroke-linecap="round" stroke-linejoin="round"/>
<path d="M190.9 109.3C183.8 111.8 175.3 114 165.9 115.7" stroke="#0A044A" stroke-width="2" stroke-miterlimit="10" stroke-linecap="round" stroke-linejoin="round"/>
<path d="M197 68.7999C209 63.6999 216 57.4999 216 50.8999" stroke="#0A044A" stroke-width="2" stroke-miterlimit="10" stroke-linecap="round" stroke-linejoin="round"/>
<path d="M24.5999 69.0002C16.6999 66.1002 10.4999 62.8002 6.3999 59.2002" stroke="#0A044A" stroke-width="2" stroke-miterlimit="10" stroke-linecap="round" stroke-linejoin="round"/>
<path d="M24.5999 75.6999C16.6999 72.7999 10.4999 69.4999 6.3999 65.8999" stroke="#0A044A" stroke-width="2" stroke-miterlimit="10" stroke-linecap="round" stroke-linejoin="round"/>
<path d="M190.9 80.4998C185.5 82.0998 181 79.6998 181 74.2998C181 81.2998 181 88.2998 181 95.2998C181 95.3998 181 95.5998 181 95.6998C181 99.7998 177.6 104 173.5 104.9C169.4 105.8 166 103.1 166 98.9998C166 94.8998 169.4 90.7998 173.5 89.8998" stroke="#0A044A" stroke-width="2" stroke-miterlimit="10" stroke-linecap="round" stroke-linejoin="round"/>
<path d="M208.8 91.3999C206 94.3999 203.2 97.2999 200.4 100.1C199 101.6 197 101.2 197 99.4999C197 95.5999 197 91.6999 197 87.7999C197 85.9999 199 84.3999 200.4 84.9999C203.2 85.9999 206 86.9999 208.8 87.9999C209.9 88.3999 209.9 90.0999 208.8 91.3999Z" stroke="#0A044A" stroke-width="2" stroke-miterlimit="10" stroke-linecap="round" stroke-linejoin="round"/>
<path d="M39 104.3C35.9 105.6 32.8 106.8 29.7 107.9C28.2 108.6 26 106.8 26 105C26 100.9 26 96.8 26 92.7C26 90.8 28.2 90.4 29.7 92C32.8 95 35.9 97.9 39 100.7C40.3 101.9 40.3 103.7 39 104.3Z" stroke="#0A044A" stroke-width="2" stroke-miterlimit="10" stroke-linecap="round" stroke-linejoin="round"/>
<path d="M46.0002 104.8C46.0002 112.8 39.5002 117.8 31.5002 115.5C23.5002 113.2 17.2002 104.5 17.2002 96.6C17.2002 88.6 23.6002 84.4 31.5002 86.7C39.4002 88.9 46.0002 96.8 46.0002 104.8Z" stroke="#0A044A" stroke-width="2" stroke-miterlimit="10" stroke-linecap="round" stroke-linejoin="round"/>
<path d="M56.3003 83.8996C54.1003 83.4996 52.3003 81.2996 52.3003 79.0996C52.3003 76.8996 54.1003 75.4996 56.3003 75.8996C58.5003 76.2996 60.3003 78.4996 60.3003 80.6996C60.3003 82.8996 58.5003 84.3996 56.3003 83.8996Z" stroke="#0A044A" stroke-width="2" stroke-miterlimit="10" stroke-linecap="round" stroke-linejoin="round"/>
<path d="M44.3003 81.3001C42.1003 80.8001 40.3003 78.5001 40.3003 76.3001C40.3003 74.1001 42.1003 72.8001 44.3003 73.3001C46.5003 73.8001 48.3003 76.0001 48.3003 78.2001C48.2003 80.5001 46.5003 81.8001 44.3003 81.3001Z" stroke="#0A044A" stroke-width="2" stroke-miterlimit="10" stroke-linecap="round" stroke-linejoin="round"/>
<path d="M32.3004 78.1999C30.1004 77.5999 28.4004 75.1999 28.4004 72.9999C28.4004 70.7999 30.2004 69.4999 32.3004 70.1999C34.5004 70.7999 36.3004 73.0999 36.3004 75.2999C36.3004 77.4999 34.5004 78.7999 32.3004 78.1999Z" stroke="#0A044A" stroke-width="2" stroke-miterlimit="10" stroke-linecap="round" stroke-linejoin="round"/>
<path d="M183.3 57.5998C181.1 57.1998 179.3 54.9998 179.3 52.7998C179.3 50.5998 181.1 49.1998 183.3 49.5998C185.5 49.9998 187.3 52.1998 187.3 54.3998C187.3 56.4998 185.5 57.9998 183.3 57.5998Z" stroke="#0A044A" stroke-width="2" stroke-miterlimit="10" stroke-linecap="round" stroke-linejoin="round"/>
<path d="M171.3 54.9002C169.1 54.4002 167.3 52.1002 167.3 49.9002C167.3 47.7002 169.1 46.4002 171.3 46.9002C173.5 47.4002 175.3 49.6002 175.3 51.8002C175.3 54.1002 173.5 55.5002 171.3 54.9002Z" stroke="#0A044A" stroke-width="2" stroke-miterlimit="10" stroke-linecap="round" stroke-linejoin="round"/>
<path d="M159.4 51.8C157.2 51.2 155.5 48.8 155.5 46.6C155.5 44.4 157.3 43.1 159.4 43.8C161.6 44.4 163.4 46.7 163.4 48.9C163.4 51.1 161.6 52.4 159.4 51.8Z" stroke="#0A044A" stroke-width="2" stroke-miterlimit="10" stroke-linecap="round" stroke-linejoin="round"/>
<path d="M166 20.2998V38.9998" stroke="#0A044A" stroke-width="2" stroke-miterlimit="10" stroke-linecap="round" stroke-linejoin="round"/>
<path d="M170 23.5V35.3" stroke="#0A044A" stroke-width="2" stroke-miterlimit="10" stroke-linecap="round" stroke-linejoin="round"/>
<path d="M174 27V35" stroke="#0A044A" stroke-width="2" stroke-miterlimit="10" stroke-linecap="round" stroke-linejoin="round"/>
<path d="M182 29V38" stroke="#0A044A" stroke-width="2" stroke-miterlimit="10" stroke-linecap="round" stroke-linejoin="round"/>
<path d="M186 31V38" stroke="#0A044A" stroke-width="2" stroke-miterlimit="10" stroke-linecap="round" stroke-linejoin="round"/>
<path d="M190 27V45" stroke="#0A044A" stroke-width="2" stroke-miterlimit="10" stroke-linecap="round" stroke-linejoin="round"/>
<path d="M193 34V40" stroke="#0A044A" stroke-width="2" stroke-miterlimit="10" stroke-linecap="round" stroke-linejoin="round"/>
<path d="M196 34V42.8" stroke="#0A044A" stroke-width="2" stroke-miterlimit="10" stroke-linecap="round" stroke-linejoin="round"/>
<path d="M162 21V37" stroke="#0A044A" stroke-width="2" stroke-miterlimit="10" stroke-linecap="round" stroke-linejoin="round"/>
<path d="M158 24V33" stroke="#0A044A" stroke-width="2" stroke-miterlimit="10" stroke-linecap="round" stroke-linejoin="round"/>
<path d="M154 25V30" stroke="#0A044A" stroke-width="2" stroke-miterlimit="10" stroke-linecap="round" stroke-linejoin="round"/>
<path d="M9 52.0002C9 48.4002 9 44.8002 9 41.7002C9 39.4002 10 37.2002 11.8 35.5002C17.7 30.1002 24.2 27.3002 29.8 26.2002C32.1 25.7002 33 26.5002 33 28.7002C33 35.0002 33 41.2002 33 47.5002C33 49.8002 32.2 51.8002 29.8 53.3002C26.8 55.2002 24.2 56.4002 21 58.5002" stroke="#0A044A" stroke-width="2" stroke-miterlimit="10" stroke-linecap="round" stroke-linejoin="round"/>
<path d="M12 54.2003C12 50.6003 12 47.3004 12 43.8004C12 41.5004 13.2 39.7004 15 38.1004C17.8 35.7004 22.8 32.9004 25.9 31.9004C28.2 31.1004 29.9 32.1004 29.9 34.4004C29.9 38.0004 29.9 41.6003 29.9 45.2003C29.9 47.5003 28.6 49.4004 25.9 51.0004C22.6 52.9004 19.1 55.0003 16.4 56.7003" stroke="#0A044A" stroke-width="2" stroke-miterlimit="10" stroke-linecap="round" stroke-linejoin="round"/>
<path d="M178 29.3999V34.9999" stroke="#0A044A" stroke-width="2" stroke-miterlimit="10" stroke-linecap="round" stroke-linejoin="round"/>
</svg>
