<svg width="241" height="206" viewBox="0 0 241 206" fill="none" xmlns="http://www.w3.org/2000/svg">
<path d="M144.2 13.2002C144.2 13.2002 145.9 15.8002 146.3 18.8002C146.7 21.8002 146.5 23.0002 146.8 24.7002C147.1 26.4002 146.2 28.2002 146 30.0002C145.8 31.8002 147.1 34.3002 146.7 37.1002C146.4 39.6002 144.9 42.4002 142.8 47.1002C140.7 51.7002 140 53.4002 136 52.9002C132 52.4002 127.6 51.0002 123.1 46.9002C119.4 43.6002 120.2 39.8002 120.2 39.8002" stroke="#0A044A" stroke-width="2" stroke-miterlimit="10" stroke-linecap="round" stroke-linejoin="round"/>
<path d="M104 23.2001C104 23.2001 99.2 22.3001 96.8 26.5001C94.6 30.4001 97.5 36.9001 97 40.2001C96.5 43.5001 91.5 44.0001 92.7 45.1001C93.9 46.2001 99.8 48.1001 104.1 46.4001C111.4 43.5001 111.4 35.4001 111.4 35.4001" stroke="#0A044A" stroke-width="2" stroke-miterlimit="10" stroke-linecap="round" stroke-linejoin="round"/>
<path d="M118.8 23.6C118.8 23.6 114.9 31 112.9 32.7C110.9 34.4 109.8 34.4 108 34.1C105 33.5 103.6 29.3 104 25.8C104.4 22.3 103.5 14.2 108.6 7.89995C113.7 1.59995 121.6 1.19996 125.3 2.49996C128.8 3.79996 132.1 6.19996 135.1 8.49996C139.8 12 140 14.6 140 14.6" stroke="#0A044A" stroke-width="2" stroke-miterlimit="10" stroke-linecap="round" stroke-linejoin="round"/>
<path d="M149.3 16.1998C147.7 12.1998 139.8 4.5998 135.5 2.8998C131.9 1.4998 128 1.7998 125.9 2.7998" stroke="#0A044A" stroke-width="2" stroke-miterlimit="10" stroke-linecap="round" stroke-linejoin="round"/>
<path d="M109.8 34.6002C109.8 34.6002 113.4 37.4002 117.2 35.1002C121 32.8002 123.7 27.8002 125.2 23.6002C126.7 19.4002 129.5 15.8002 132.1 14.1002C136.4 11.3002 140.1 15.0002 140.1 15.0002C140.1 15.0002 141.8 13.4002 143.5 13.1002C146.3 12.6002 149.1 14.2002 149.8 17.8002C150.5 21.4002 149.4 25.0002 146.7 25.7002C145.7 26.0002 144.2 25.9002 142.6 26.6002C141 27.3002 140.6 28.1002 141.3 31.4002C142 34.7002 143.5 37.6002 142.6 38.4002C141.3 39.7002 138.4 39.9002 138.4 39.9002" stroke="#0A044A" stroke-width="2" stroke-miterlimit="10" stroke-linecap="round" stroke-linejoin="round"/>
<path d="M136 25.9999C136 25.9999 131.9 25.8999 130.5 26.4999C129.1 27.0999 128.5 27.4999 128.5 27.4999" stroke="#0A044A" stroke-width="2" stroke-miterlimit="10" stroke-linecap="round" stroke-linejoin="round"/>
<path d="M115.1 36.3999C116.1 38.3999 116 40.7999 116 45.5999C116 52.2999 112.2 54.3999 108.9 56.1999C99.2001 61.6999 90.6001 60.7999 85.3001 70.4999C80.0001 80.1999 70.5001 106.9 67.2001 112.4C63.8001 117.9 60.4001 119.8 57.0001 128.3C53.6001 136.8 49.4001 149.7 46.7001 154.9C44.0001 160.1 40.7001 163.5 36.4001 165.8C32.1001 168.1 26.7001 171.7 26.2001 174.3C25.7001 176.9 25.3001 180.4 24.9001 181.6C24.5001 182.8 25.2001 184 27.9001 184C30.6001 184 35.8001 182 39.6001 178.2C43.4001 174.4 44.6001 175.3 44.6001 176.7C44.6001 178.1 42.5001 183.9 44.6001 184C46.7001 184.1 47.0001 181.8 48.0001 179.4C49.0001 177 51.0001 174.8 51.0001 171.3C51.0001 167.8 51.0001 164.8 55.5001 158.8C60.0001 152.8 70.4001 139 72.0001 136.3C73.6001 133.6 76.6001 125.1 77.5001 122.9C78.4001 120.7 83.1001 113.1 85.5001 109.2C87.9001 105.3 93.3001 97.1999 95.1001 94.8999C96.9001 92.5999 99.9001 90.4999 101.1 89.9999" stroke="#0A044A" stroke-width="2" stroke-miterlimit="10" stroke-linecap="round" stroke-linejoin="round"/>
<path d="M132.1 52.6001C132.1 52.6001 131.9 57.4001 132.7 60.7001" stroke="#0A044A" stroke-width="2" stroke-miterlimit="10" stroke-linecap="round" stroke-linejoin="round"/>
<path d="M150.3 80.2002C150.3 80.2002 150.7 84.5002 152.7 87.2002C154.7 89.9002 156.1 94.4002 153.8 99.4002C152.6 101.9 149.4 104.1 149.4 104.1C149.4 104.1 149.2 114 149.8 120.9C151.6 140.4 155.4 146 157.4 153.5C159.3 160.5 161.3 172 161.8 179.3C162.6 189.7 161.9 202.2 161.9 202.2" stroke="#0A044A" stroke-width="2" stroke-miterlimit="10" stroke-linecap="round" stroke-linejoin="round"/>
<path d="M97.7001 92.7998C98.8001 102.3 100 109.5 101.2 115.2C102 119.3 106.1 129.1 105.1 139.3C104.4 146.5 97.4001 156.3 94.5001 166.3C92.9001 171.8 89.9001 181.1 89.2001 191.8C89.1001 193.7 89.1001 199.7 89.1001 203" stroke="#0A044A" stroke-width="2" stroke-miterlimit="10" stroke-linecap="round" stroke-linejoin="round"/>
<path d="M131.1 181.8C131.1 181.8 126.6 188.6 124.6 195.1C122.6 201.6 121.8 204.5 121.8 204.5" stroke="#0A044A" stroke-width="2" stroke-miterlimit="10" stroke-linecap="round" stroke-linejoin="round"/>
<path d="M133.9 204.1C133.9 204.1 132.3 197.1 131 193.1C129.7 189.1 128.6 186.6 128.6 186.6" stroke="#0A044A" stroke-width="2" stroke-miterlimit="10" stroke-linecap="round" stroke-linejoin="round"/>
<path d="M132.4 56.1001C132.4 56.1001 135.8 58.8001 141.9 60.4001C146.3 61.6001 152.2 62.1001 155.8 71.4001C159.5 80.7001 167.9 106.9 172.9 113.4C177.9 119.9 180.9 131.9 183.7 139.6C186.5 147.3 189.6 153 195.5 157C200.1 160.1 202 160.7 204.4 165.2C206.3 168.7 208.6 174.3 208.9 175.8C209.2 177.3 207.8 177.4 206 176.6C204.9 176.2 201.2 172.4 199.2 170.3C197.2 168.2 192.9 165.5 191.5 165.5C190.2 165.5 190.3 166.7 190.8 170.3C191.1 172.5 191.3 175.8 189.6 176.1C187.9 176.4 187.8 172 186.3 169.3C184.8 166.6 182 163 182 159C182 155 181.8 151.5 175.5 143.7C169.2 135.9 162.2 126.5 160.7 121.5C159.2 116.5 158 113.7 155.5 109.8C153 106 151.1 102.7 151.1 102.7" stroke="#0A044A" stroke-width="2" stroke-miterlimit="10" stroke-linecap="round" stroke-linejoin="round"/>
<path d="M183.9 139.6C217.7 145.8 240 156.9 240 169.5C240 175.4 235.1 181 226.4 185.9" stroke="#0A044A" stroke-width="2" stroke-miterlimit="10" stroke-linecap="round" stroke-linejoin="round"/>
<path d="M151.9 135.5C158.3 136 164.5 136.7 170.4 137.5" stroke="#0A044A" stroke-width="2" stroke-miterlimit="10" stroke-linecap="round" stroke-linejoin="round"/>
<path d="M72.2002 137.2C82.5002 135.9 93.6002 134.9 105.2 134.5" stroke="#0A044A" stroke-width="2" stroke-miterlimit="10" stroke-linecap="round" stroke-linejoin="round"/>
<path d="M203.7 194.8C182.2 200.9 152.8 204.9 120.4 204.9C54.3 204.9 1 188.9 1 169.5C1 157.5 21.1 146.9 52.3 140.5" stroke="#0A044A" stroke-width="2" stroke-miterlimit="10" stroke-linecap="round" stroke-linejoin="round"/>
<path d="M191.4 190.5L204.3 194.6L195.1 204.4" stroke="#0A044A" stroke-width="2" stroke-miterlimit="10" stroke-linecap="round" stroke-linejoin="round"/>
<path d="M92.8 108.2C93.4 106.9 96.7 99.1 96.7 99.1C97.8 108.6 98.1 111.9 98 115C97.9 120.3 98.6 129.5 96.2 139.9C94.7 146.4 90.2 155.6 88.3 165.4C92.2 168 106.2 173.3 130.8 171.6C154.5 169.9 161.4 165.5 163.3 163.2C162.6 159.7 161.7 156.4 160.7 153.5C158.1 146.2 154.9 138.7 152.9 124.7C152 118.5 151.7 108.2 151.7 108.2C151.7 108.2 155.6 106.9 160.7 103.8C164.8 101.3 167.4 98.3 168 96.7C164 88.1 159.7 76.8 157.7 71.5C153.9 61.1 146.1 59.5 141.6 58.3C139.4 57.7 137.5 57.1 135.9 56.2C136.2 57.9 136.9 60.1 137.1 61.4C138.6 69.7 136.6 75.8 134.6 76.2C132.6 76.6 127.7 77.6 120 69.9C114.2 64.2 110 57.5 108.2 54.5C101.6 58.7 88.5 59.2 83.9 69.7C81.1 76 75.8 87.3 71 97C71.8 98 76.4 101.8 79.9 103.6C86.6 106.9 90.4 108.3 92.8 108.2Z" fill="#5749AB"/>
<path d="M150.3 80.2002C150.3 80.2002 150.7 84.5002 152.7 87.2002C154.7 89.9002 156.1 94.4002 153.8 99.4002C152.6 101.9 149.4 104.1 149.4 104.1" stroke="#0A044A" stroke-width="2" stroke-miterlimit="10" stroke-linecap="round" stroke-linejoin="round"/>
<path d="M107.2 61.3003C106.4 61.6003 105.6 61.9003 104.9 62.2003" stroke="white" stroke-width="2" stroke-linecap="round" stroke-linejoin="round"/>
<path d="M98.6002 64.5005C94.8002 66.1005 92.0002 68.1005 89.1002 72.9005C86.7002 76.8005 83.4002 84.7005 80.2002 91.4005" stroke="white" stroke-width="2" stroke-linecap="round" stroke-linejoin="round" stroke-dasharray="5.58 5.58"/>
<path d="M78.7001 94.4004C78.3001 95.2004 77.9001 95.9004 77.6001 96.6004" stroke="white" stroke-width="2" stroke-linecap="round" stroke-linejoin="round"/>
<path d="M102.6 89.8003C102.6 89.8003 102.7 90.7003 102.9 92.3003" stroke="white" stroke-width="2" stroke-linecap="round" stroke-linejoin="round"/>
<path d="M103.5 98.1001C104.3 106.3 105.4 118.7 104.9 125.6C104.3 136.1 103 142.1 101.2 149.4C100.4 152.8 99.6 156.2 99 158.8" stroke="white" stroke-width="2" stroke-linecap="round" stroke-linejoin="round" stroke-dasharray="4.87 4.87"/>
<path d="M98.3999 161.7C98.0999 163.2 97.8999 164.1 97.8999 164.1" stroke="white" stroke-width="2" stroke-linecap="round" stroke-linejoin="round"/>
<path d="M75 95.5L80.1 98.7" stroke="white" stroke-width="2" stroke-miterlimit="10" stroke-linecap="round" stroke-linejoin="round"/>
<path d="M106.1 58.6001L109.5 63.6001" stroke="white" stroke-width="2" stroke-miterlimit="10" stroke-linecap="round" stroke-linejoin="round"/>
<path d="M99.6001 89H105.6" stroke="white" stroke-width="2" stroke-miterlimit="10" stroke-linecap="round" stroke-linejoin="round"/>
<path d="M94.8999 163.5L100.8 164.9" stroke="white" stroke-width="2" stroke-miterlimit="10" stroke-linecap="round" stroke-linejoin="round"/>
<path d="M97.9002 53H42.2002" stroke="#0A044A" stroke-width="2" stroke-miterlimit="10" stroke-linecap="round" stroke-linejoin="round"/>
<path d="M65.6002 97H42.2002" stroke="#0A044A" stroke-width="2" stroke-miterlimit="10" stroke-linecap="round" stroke-linejoin="round"/>
<path d="M50 60V90" stroke="#0A044A" stroke-width="2" stroke-miterlimit="10" stroke-linecap="round" stroke-linejoin="round"/>
<path d="M46 64.1L50 59L54 64.1" stroke="#0A044A" stroke-width="2" stroke-miterlimit="10" stroke-linecap="round" stroke-linejoin="round"/>
<path d="M54 85.8999L50 90.9999L46 85.8999" stroke="#0A044A" stroke-width="2" stroke-miterlimit="10" stroke-linecap="round" stroke-linejoin="round"/>
<path d="M34 78H3C1.3 78 0 76.7 0 75C0 73.3 1.3 72 3 72H34C35.7 72 37 73.3 37 75C37 76.7 35.7 78 34 78Z" fill="#5749AB"/>
<path d="M238 78H207C205.3 78 204 76.7 204 75C204 73.3 205.3 72 207 72H238C239.7 72 241 73.3 241 75C241 76.7 239.7 78 238 78Z" fill="#5749AB"/>
<path d="M238 90H207C205.3 90 204 88.7 204 87C204 85.3 205.3 84 207 84H238C239.7 84 241 85.3 241 87C241 88.7 239.7 90 238 90Z" fill="#5749AB"/>
<path d="M238 102H207C205.3 102 204 100.7 204 99C204 97.3 205.3 96 207 96H238C239.7 96 241 97.3 241 99C241 100.7 239.7 102 238 102Z" fill="#5749AB"/>
<path d="M193 79C195.209 79 197 77.2091 197 75C197 72.7909 195.209 71 193 71C190.791 71 189 72.7909 189 75C189 77.2091 190.791 79 193 79Z" stroke="#0A044A" stroke-width="2" stroke-miterlimit="10" stroke-linecap="round" stroke-linejoin="round"/>
<path d="M193 91C195.209 91 197 89.2091 197 87C197 84.7909 195.209 83 193 83C190.791 83 189 84.7909 189 87C189 89.2091 190.791 91 193 91Z" stroke="#0A044A" stroke-width="2" stroke-miterlimit="10" stroke-linecap="round" stroke-linejoin="round"/>
<path d="M193 103C195.209 103 197 101.209 197 99C197 96.7909 195.209 95 193 95C190.791 95 189 96.7909 189 99C189 101.209 190.791 103 193 103Z" stroke="#0A044A" stroke-width="2" stroke-miterlimit="10" stroke-linecap="round" stroke-linejoin="round"/>
</svg>
