<svg width="1448" height="580" viewBox="0 0 1448 580" fill="none" xmlns="http://www.w3.org/2000/svg">
<mask id="mask0" mask-type="alpha" maskUnits="userSpaceOnUse" x="0" y="0" width="1448" height="580">
<rect width="1448" height="580" rx="12" fill="#5749AB"/>
</mask>
<g mask="url(#mask0)">
<g opacity="0.08">
<path d="M1427.97 547.181L1300.4 294.43L1514.63 337.759L1427.97 547.181Z" stroke="white" stroke-width="1.5"/>
<path d="M1514.63 337.759L1300.4 294.431L1610.92 162.038L1514.63 337.759Z" stroke="white" stroke-width="1.5"/>
<path d="M1007.93 681.982L750.364 666.336L1075.33 544.775L1007.93 681.982Z" stroke="white" stroke-width="1.5"/>
<path d="M-96.719 437.615L16.0229 579.358L-194.163 511.074L-96.719 437.615Z" stroke="white" stroke-width="1.5"/>
<path d="M1307.62 -78.6777L1072.92 544.773L1300.4 294.43L1307.62 -78.6777Z" stroke="white" stroke-width="1.5"/>
<path d="M927.29 116.302L770.825 357.017L1174.02 275.174L927.29 116.302Z" stroke="white" stroke-width="1.5"/>
<path d="M924.883 117.506L858.686 -122.005L815.357 117.506H924.883Z" stroke="white" stroke-width="1.5"/>
<path d="M1143.93 -186.998L928.492 117.506L1307.62 -78.6764L1143.93 -186.998Z" stroke="white" stroke-width="1.5"/>
<path d="M1420.75 679.574L1072.92 545.978L1427.97 547.181L1420.75 679.574Z" stroke="white" stroke-width="1.5"/>
<path d="M1627.77 559.217L1420.75 679.575L1625.36 848.075L1627.77 559.217Z" stroke="white" stroke-width="1.5"/>
<path d="M1440.01 -18.498L1300.4 294.431L1610.92 162.038L1440.01 -18.498Z" stroke="white" stroke-width="1.5"/>
<path d="M1627.77 559.216L1427.97 547.181L1514.63 337.759L1627.77 559.216Z" stroke="white" stroke-width="1.5"/>
<path d="M543.35 92.2303L469.932 20.0159L461.507 152.409L543.35 92.2303Z" stroke="white" stroke-width="1.5"/>
<path d="M378.617 24.8297L378.617 -27.9853L248.473 -11.2778L378.617 24.8297Z" stroke="white" stroke-width="1.5"/>
<path d="M523.402 435.676L538.536 561.624L646.857 393.124L523.402 435.676Z" stroke="white" stroke-width="1.5"/>
<path d="M1931.07 -28.1272L1440.01 -18.4986L1779.42 340.166L1931.07 -28.1272Z" stroke="white" stroke-width="1.5"/>
</g>
</g>
</svg>
