<svg width="1564" height="1330" viewBox="0 0 1564 1330" fill="none" xmlns="http://www.w3.org/2000/svg">
<g opacity="0.08">
<path d="M610.886 820.272L685.11 673.223L560.469 698.432L610.886 820.272Z" stroke="white" stroke-width="1.5"/>
<path d="M560.469 698.432L685.11 673.223L504.45 596.198L560.469 698.432Z" stroke="white" stroke-width="1.5"/>
<path d="M855.268 898.699L1005.12 889.596L816.055 818.872L855.268 898.699Z" stroke="white" stroke-width="1.5"/>
<path d="M1046.43 986.227L1004.42 889.595L1112.26 959.618L1046.43 986.227Z" stroke="white" stroke-width="1.5"/>
<path d="M1497.95 756.527L1432.35 838.993L1554.64 799.265L1497.95 756.527Z" stroke="white" stroke-width="1.5"/>
<path d="M1508.37 1152.08L1417.37 1164.97L1496.15 1251.45L1508.37 1152.08Z" stroke="white" stroke-width="1.5"/>
<path d="M680.912 456.151L817.457 818.872L685.113 673.223L680.912 456.151Z" stroke="white" stroke-width="1.5"/>
<path d="M868.572 1083.56L855.268 896.597L747.432 1020.54L868.572 1083.56Z" stroke="white" stroke-width="1.5"/>
<path d="M448.515 1141.11L461.819 1328.07L569.655 1204.13L448.515 1141.11Z" stroke="white" stroke-width="1.5"/>
<path d="M902.182 569.59L993.212 709.636L758.634 662.02L902.182 569.59Z" stroke="white" stroke-width="1.5"/>
<path d="M903.586 570.29L942.099 430.943L967.308 570.29H903.586Z" stroke="white" stroke-width="1.5"/>
<path d="M776.146 393.131L901.487 570.29L680.914 456.152L776.146 393.131Z" stroke="white" stroke-width="1.5"/>
<path d="M615.09 897.298L817.457 819.572L610.888 820.273L615.09 897.298Z" stroke="white" stroke-width="1.5"/>
<path d="M494.65 827.275L615.09 897.298L496.05 995.331L494.65 827.275Z" stroke="white" stroke-width="1.5"/>
<path d="M347.603 863.686L413.425 1030.34L496.053 995.33L347.603 863.686Z" stroke="white" stroke-width="1.5"/>
<path d="M603.883 491.163L685.11 673.223L504.45 596.198L603.883 491.163Z" stroke="white" stroke-width="1.5"/>
<path d="M494.649 827.274L610.888 820.272L560.471 698.431L494.649 827.274Z" stroke="white" stroke-width="1.5"/>
<path d="M406.419 699.832L560.471 698.431L494.649 827.274L406.419 699.832Z" stroke="white" stroke-width="1.5"/>
<path d="M347.603 863.687L494.652 827.275L496.053 995.331L347.603 863.687Z" stroke="white" stroke-width="1.5"/>
<path d="M776.142 393.13L942.097 430.943L858.769 355.318L776.142 393.13Z" stroke="white" stroke-width="1.5"/>
<path d="M752.339 282.493L858.774 355.318L776.147 393.13L752.339 282.493Z" stroke="white" stroke-width="1.5"/>
<path d="M836.367 265.688L858.774 355.317L752.339 282.493L836.367 265.688Z" stroke="white" stroke-width="1.5"/>
<path d="M943.498 406.435L872.074 327.309L986.912 371.424L943.498 406.435Z" stroke="white" stroke-width="1.5"/>
<path d="M965.204 435.845L1031.73 409.236L1056.23 496.065L965.204 435.845Z" stroke="white" stroke-width="1.5"/>
<path d="M1125.56 555.585L1168.28 513.571L1173.18 590.596L1125.56 555.585Z" stroke="white" stroke-width="1.5"/>
<path d="M1221.4 516.371L1221.4 485.644L1297.12 495.364L1221.4 516.371Z" stroke="white" stroke-width="1.5"/>
<path d="M1137.16 755.399L1128.36 828.675L1065.34 730.643L1137.16 755.399Z" stroke="white" stroke-width="1.5"/>
<path d="M1080.77 1153.29L1028.55 1089.48L986.571 1165.16L1080.77 1153.29Z" stroke="white" stroke-width="1.5"/>
<path d="M836.362 265.688L989.013 193.564L747.432 33.2106L836.362 265.688Z" stroke="white" stroke-width="1.5"/>
<path d="M39.4986 999.531L413.423 1030.34L347.601 863.686L39.4986 999.531Z" stroke="white" stroke-width="1.5"/>
<path d="M347.6 863.686L406.419 699.832L494.648 827.274L347.6 863.686Z" stroke="white" stroke-width="1.5"/>
<path d="M504.452 596.198L406.419 699.832L560.471 698.432L504.452 596.198Z" stroke="white" stroke-width="1.5"/>
<path d="M318.191 485.561L603.886 491.163L406.42 699.832L318.191 485.561Z" stroke="white" stroke-width="1.5"/>
<path d="M603.886 491.163L680.912 456.152L530.362 327.309L603.886 491.163Z" stroke="white" stroke-width="1.5"/>
<path d="M680.914 456.151L752.338 282.493L776.146 393.13L680.914 456.151Z" stroke="white" stroke-width="1.5"/>
<path d="M530.361 327.309L836.362 265.688L748.833 34.6115L530.361 327.309Z" stroke="white" stroke-width="1.5"/>
<path d="M318.191 485.562L530.361 327.309L603.886 491.163L318.191 485.562Z" stroke="white" stroke-width="1.5"/>
<path d="M372.809 1L530.361 327.308L747.434 36.0116L372.809 1Z" stroke="white" stroke-width="1.5"/>
<path d="M3.08679 632.61L406.421 699.832L318.192 485.561L3.08679 632.61Z" stroke="white" stroke-width="1.5"/>
<path d="M174.643 145.948L318.191 485.561L530.361 327.308L174.643 145.948Z" stroke="white" stroke-width="1.5"/>
<path d="M374.209 3.10059L176.744 150.85L530.361 327.308L374.209 3.10059Z" stroke="white" stroke-width="1.5"/>
<path d="M3.08679 632.61L347.601 863.687L406.421 699.832L3.08679 632.61Z" stroke="white" stroke-width="1.5"/>
<path d="M3.08701 632.61L347.602 863.687L39.4991 999.532L3.08701 632.61Z" stroke="white" stroke-width="1.5"/>
<path d="M175.343 145.948L318.19 485.561L3.08569 632.61L175.343 145.948Z" stroke="white" stroke-width="1.5"/>
</g>
</svg>
